<svg width="145" height="272" viewBox="0 0 145 272" fill="none" xmlns="http://www.w3.org/2000/svg">
<path d="M-271.636 226.388C-266.337 263.28 -237.858 310.745 -198.716 294.598C-169.129 282.393 -203.106 252.26 -168.643 226.034C-134.18 199.809 -83.7939 197.297 -54.6156 225.775C-33.1291 246.746 -60.0381 274.872 -42.1901 298.392C-1.16533 352.452 149.725 313.186 144.463 247.201C140.975 203.463 79.9398 207.46 54.5475 170.574C23.6956 125.758 62.407 74.235 18.7175 38.8275C-14.3226 12.0505 -50.9428 -12.0307 -91.8921 7.92554C-145.073 33.843 -19.4929 109.073 -69.3003 139.956C-92.4399 154.303 -111.788 150.855 -139.512 151.969C-173.401 153.331 -193.577 129.01 -224.884 141.663C-262.83 157 -276.756 190.744 -271.636 226.388Z" fill="url(#paint0_linear_17_2414)"/>
<defs>
<linearGradient id="paint0_linear_17_2414" x1="-303.385" y1="41.0544" x2="89.5483" y2="379.202" gradientUnits="userSpaceOnUse">
<stop stop-color="#2308B9"/>
<stop offset="1" stop-color="#07A6B9"/>
</linearGradient>
</defs>
</svg>
