<svg width="382" height="334" viewBox="0 0 382 334" fill="none" xmlns="http://www.w3.org/2000/svg">
<path d="M286.581 279.054C287.984 278.281 288.983 276.383 288.991 274.146C289 271.215 287.309 268.829 285.214 268.817C283.119 268.804 281.413 271.169 281.404 274.1C281.397 276.358 282.402 278.279 283.821 279.054C277.983 280.207 278.248 288.529 278.248 288.529L292.053 288.612C292.053 288.612 292.368 280.2 286.581 279.054Z" fill="#EBEBEB"/>
<path d="M41.8863 90.7565C42.9396 90.1767 43.6888 88.7525 43.6949 87.0738C43.7016 84.8748 42.4328 83.0845 40.8605 83.0745C39.2887 83.0651 38.0087 84.84 38.0016 87.0391C37.9965 88.7331 38.7508 90.1747 39.8153 90.7565C35.4346 91.6222 35.6332 97.866 35.6332 97.866L45.992 97.9288C45.992 97.9288 46.2289 91.6169 41.8863 90.7565Z" fill="#EBEBEB"/>
<path d="M288.065 69.1901C288.221 78.3497 282.686 85.9415 275.702 86.1459C268.718 86.3497 262.929 79.0905 262.773 69.9309C262.617 60.7713 268.153 53.1795 275.137 52.9751C282.121 52.77 287.909 60.0305 288.065 69.1901Z" fill="#F5F5F5"/>
<path d="M272.749 65.1333C272.282 64.331 271.387 64.3097 270.796 64.8975C270.205 65.486 269.933 66.1754 269.828 67.2175C269.685 66.1827 269.344 65.5107 268.729 64.9576C268.115 64.4058 267.215 64.4793 266.772 65.3076C266.512 65.7933 266.441 66.4579 266.513 67.0678C266.585 67.6777 266.728 68.3083 267.021 68.7559C268.066 70.3484 268.625 70.6196 269.95 71.7338C271.226 70.5434 271.637 70.2435 272.618 68.5915C272.894 68.1273 273.014 67.4893 273.065 66.8748C273.115 66.2622 273.023 65.6029 272.749 65.1333Z" fill="#E0E0E0"/>
<path d="M283.916 64.8053C283.449 64.0044 282.554 63.983 281.963 64.5708C281.372 65.158 281.1 65.848 280.995 66.8895C280.853 65.8554 280.512 65.1841 279.897 64.631C279.282 64.0778 278.383 64.1527 277.94 64.981C277.68 65.4666 277.609 66.1299 277.681 66.7398C277.753 67.3497 277.896 67.9816 278.189 68.4279C279.233 70.0204 279.793 70.2929 281.118 71.4065C282.394 70.2168 282.805 69.9162 283.786 68.2649C284.062 67.8013 284.182 67.1627 284.232 66.5481C284.282 65.9356 284.191 65.2756 283.916 64.8053Z" fill="#E0E0E0"/>
<path d="M279.675 73.333C279.524 76.0518 277.611 78.3978 275.533 78.4132C273.456 78.4278 271.523 76.1092 271.35 73.3931L279.675 73.333Z" fill="white"/>
<path d="M346.567 254.999C347.704 245.735 342.899 237.017 335.835 235.526C328.772 234.035 322.124 240.336 320.987 249.6C319.85 258.864 324.655 267.583 331.719 269.074C338.782 270.565 345.43 264.263 346.567 254.999Z" fill="#F5F5F5"/>
<path d="M329.485 247.435C329.976 247.396 330.411 248.117 330.454 249.048C330.498 249.979 330.135 250.765 329.643 250.805C329.151 250.845 328.717 250.123 328.673 249.192C328.63 248.262 328.993 247.475 329.485 247.435Z" fill="#E0E0E0"/>
<path d="M330.692 243.165C330.662 243.409 329.604 243.335 328.421 243.888C327.229 244.411 326.431 245.326 326.293 245.158C326.151 245.031 326.838 243.696 328.208 243.083C329.575 242.455 330.744 242.95 330.692 243.165Z" fill="#E0E0E0"/>
<path d="M340.083 250.087C339.944 250.24 339.247 249.255 338.131 249.106C337.015 248.94 336.176 249.706 336.065 249.52C336.008 249.438 336.145 249.11 336.515 248.779C336.878 248.451 337.499 248.16 338.2 248.258C338.901 248.358 339.46 248.816 339.762 249.238C340.071 249.664 340.15 250.024 340.083 250.087Z" fill="#E0E0E0"/>
<path d="M341.195 247.25C341.095 247.461 340.044 246.737 338.643 246.682C337.242 246.589 336.152 247.201 336.064 246.98C335.956 246.803 337.061 245.737 338.669 245.831C340.277 245.906 341.314 247.086 341.195 247.25Z" fill="#E0E0E0"/>
<path d="M340.278 251.972C340.336 251.962 340.351 253.379 339.467 255.238C338.631 257.048 336.681 259.243 334.057 259.381C331.431 259.459 329.38 257.429 328.46 255.689C327.488 253.907 327.436 252.492 327.494 252.497C327.608 252.446 327.825 253.756 328.822 255.318C329.773 256.855 331.695 258.604 334.037 258.529C336.377 258.41 338.212 256.509 339.088 254.895C340.008 253.255 340.162 251.93 340.278 251.972Z" fill="#E0E0E0"/>
<path d="M43.832 152.66C43.9782 161.971 38.3419 169.675 31.2423 169.867C24.1427 170.059 18.2686 162.667 18.1224 153.355C17.9757 144.044 23.613 136.34 30.7121 136.148C37.8117 135.956 43.6859 143.349 43.832 152.66Z" fill="#F5F5F5"/>
<path d="M26.5414 148.759C27.0288 148.706 27.4704 149.412 27.5285 150.334C27.586 151.257 27.2387 152.047 26.7512 152.1C26.2638 152.152 25.8217 151.447 25.7641 150.525C25.7061 149.603 26.054 148.812 26.5414 148.759Z" fill="#E0E0E0"/>
<path d="M27.6722 144.49C27.663 144.635 26.5863 144.501 25.3822 145.099C24.17 145.67 23.4177 146.689 23.3388 146.585C23.2558 146.525 23.9413 145.269 25.2544 144.644C26.5618 144.002 27.7053 144.373 27.6722 144.49Z" fill="#E0E0E0"/>
<path d="M34.7161 148.538C34.2277 148.512 33.8085 149.24 33.7789 150.165C33.7499 151.089 34.1227 151.861 34.6112 151.887C35.0996 151.913 35.5193 151.185 35.5484 150.26C35.5774 149.335 35.2046 148.564 34.7161 148.538Z" fill="#E0E0E0"/>
<path d="M33.452 144.333C33.4154 144.219 34.5461 143.786 35.8729 144.357C37.2048 144.911 37.9291 146.128 37.8481 146.193C37.7722 146.3 36.9888 145.323 35.7598 144.818C34.5374 144.287 33.4663 144.478 33.452 144.333Z" fill="#E0E0E0"/>
<path d="M37.3207 152.836C37.3405 152.839 37.3304 153.166 37.231 153.739C37.1343 154.313 36.9086 155.126 36.4844 156.027C36.0626 156.929 35.4112 157.894 34.5239 158.689C33.6423 159.484 32.5044 160.076 31.256 160.175C30.0061 160.247 28.827 159.813 27.8873 159.142C26.942 158.472 26.2172 157.601 25.7267 156.762C25.2332 155.923 24.9444 155.145 24.8028 154.587C24.6587 154.03 24.623 153.707 24.6418 153.701C24.7182 153.658 24.9194 154.975 25.9284 156.545C26.425 157.325 27.1366 158.13 28.0452 158.747C28.9488 159.365 30.0642 159.757 31.2362 159.691C32.4066 159.597 33.4844 159.056 34.334 158.317C35.1886 157.581 35.8324 156.683 36.2648 155.84C37.1455 154.141 37.2412 152.804 37.3207 152.836Z" fill="#E0E0E0"/>
<path d="M141.861 175.567C141.227 174.572 140.076 174.609 139.342 175.408C138.608 176.206 138.288 177.112 138.197 178.458C137.971 177.139 137.504 176.301 136.691 175.636C135.877 174.971 134.725 175.132 134.19 176.228C133.877 176.87 133.815 177.729 133.933 178.508C134.051 179.286 134.262 180.086 134.657 180.639C136.066 182.608 136.796 182.917 138.545 184.25C140.134 182.629 140.649 182.213 141.839 180.02C142.174 179.404 142.301 178.575 142.34 177.783C142.379 176.991 142.233 176.151 141.861 175.567Z" fill="#E0E0E0"/>
<path d="M327.663 46.3813C327.029 45.3859 325.878 45.4233 325.144 46.2216C324.41 47.0199 324.091 47.9257 323.999 49.2717C323.773 47.9531 323.307 47.1147 322.493 46.4501C321.68 45.7847 320.527 45.9457 319.993 47.0419C319.68 47.6845 319.618 48.5429 319.736 49.3218C319.853 50.1 320.064 50.9003 320.46 51.4527C321.869 53.422 322.599 53.7306 324.348 55.0646C325.936 53.4427 326.451 53.0272 327.642 50.8335C327.976 50.2176 328.104 49.3886 328.143 48.5963C328.182 47.8054 328.035 46.9651 327.663 46.3813Z" fill="#E0E0E0"/>
<path d="M277.44 232.865C276.806 231.869 275.655 231.907 274.921 232.705C274.187 233.503 273.867 234.409 273.776 235.755C273.55 234.437 273.083 233.598 272.27 232.934C271.456 232.268 270.304 232.429 269.769 233.525C269.456 234.168 269.394 235.026 269.512 235.805C269.63 236.584 269.841 237.384 270.236 237.937C271.645 239.906 272.375 240.215 274.124 241.549C275.713 239.927 276.228 239.511 277.419 237.318C277.753 236.702 277.88 235.873 277.919 235.081C277.958 234.289 277.812 233.449 277.44 232.865Z" fill="#EBEBEB"/>
<path d="M313.321 113.955C300.44 113.955 289.048 122.275 282.076 135.033L268.42 137.57L276.082 151.883C275.308 155.872 274.894 160.049 274.894 164.353C274.894 192.188 292.099 214.751 313.322 214.751C334.545 214.751 351.749 192.187 351.749 164.353C351.749 136.52 334.544 113.955 313.321 113.955Z" fill="#E0E0E0"/>
<path d="M306.266 93.0063C311.898 83.2796 317.835 84.6536 321.956 87.0036C326.076 89.3543 328.843 95.2762 328.569 101.158C328.497 102.712 328.244 104.347 328.725 105.769C329.501 108.057 331.755 108.701 333.06 110.527C334.845 113.024 334.45 116.977 333.847 120.308C333.244 123.638 332.609 127.44 334.103 130.247C335.47 132.818 338.078 133.508 340.228 134.877C343.07 136.686 345.354 140.062 346.179 144.061C347.004 148.06 346.278 152.614 344.142 155.666C342.051 158.653 338.912 159.977 335.854 160.568C326.953 162.288 317.527 158.522 310.869 150.587C304.212 142.651 300.454 130.704 300.91 118.921" fill="#263238"/>
<path d="M340.925 156.664C340.909 156.641 341.12 156.424 341.436 155.915C341.751 155.412 342.179 154.597 342.438 153.4C342.695 152.209 342.753 150.653 342.468 148.927C342.204 147.202 341.528 145.331 340.375 143.707C339.8 142.898 339.12 142.141 338.338 141.504C337.56 140.855 336.672 140.358 335.743 139.858C334.816 139.354 333.835 138.849 332.905 138.095C331.974 137.342 331.136 136.32 330.451 135.108C329.061 132.686 328.331 129.515 328.274 126.254C328.241 124.621 328.359 122.957 328.595 121.307C328.824 119.656 329.143 118.014 329.387 116.342C329.553 115.161 329.709 113.963 329.698 112.812C329.676 111.652 329.434 110.533 329.106 109.464C328.779 108.39 328.395 107.35 328.087 106.265C327.788 105.154 327.656 104.026 327.556 102.917C327.453 101.802 327.454 100.702 327.358 99.6576C327.275 98.6022 327.111 97.5788 326.905 96.5935C326.488 94.6323 325.855 92.7939 325.018 91.313L325.008 91.2949L325.006 91.2909C323.597 88.3698 321.277 86.7525 319.187 86.3698C317.066 85.9569 315.193 86.7879 313.899 87.82C312.581 88.8601 311.782 90.0985 311.31 90.9723C310.842 91.8594 310.668 92.3965 310.643 92.3798C310.643 92.3798 310.782 91.8227 311.231 90.9015C311.683 89.995 312.472 88.7091 313.804 87.6156C315.109 86.5328 317.027 85.6396 319.223 86.0364C321.382 86.4045 323.79 88.0398 325.273 91.0718L325.261 91.0504C326.155 92.6109 326.793 94.4606 327.232 96.4733C327.446 97.4799 327.617 98.5267 327.705 99.6048C327.807 100.69 327.809 101.779 327.912 102.864C328.011 103.95 328.147 105.06 328.429 106.1C328.729 107.151 329.114 108.19 329.449 109.285C329.786 110.376 330.047 111.565 330.071 112.799C330.081 114.037 329.922 115.23 329.754 116.434C329.507 118.125 329.188 119.764 328.96 121.394C328.727 123.021 328.611 124.645 328.64 126.241C328.692 129.426 329.394 132.494 330.728 134.839C331.386 136.013 332.188 137 333.08 137.73C333.974 138.462 334.937 138.971 335.863 139.483C336.79 139.993 337.696 140.507 338.493 141.185C339.293 141.849 339.987 142.634 340.571 143.473C341.743 145.155 342.425 147.101 342.674 148.872C342.946 150.641 342.866 152.239 342.579 153.453C342.292 154.675 341.833 155.489 341.495 155.979C341.153 156.474 340.925 156.664 340.925 156.664Z" fill="#455A64"/>
<path d="M320.327 145.244C320.278 145.172 320.857 144.407 321.618 143.536C322.38 142.665 323.036 142.018 323.085 142.09C323.133 142.162 322.554 142.927 321.792 143.798C321.031 144.669 320.375 145.317 320.327 145.244Z" fill="#FAFAFA"/>
<path d="M318.481 139.471L301.502 142.183C301.502 142.183 287.839 145.44 285.093 158.861C283.196 168.129 279.27 185.391 277.022 195.187C276.052 199.413 277.512 203.943 280.497 205.979C284.098 208.434 288.531 206.373 290.148 201.491L297.574 179.079C297.574 179.079 300.191 186.908 300.041 190.61C299.89 194.313 293.994 207.92 293.994 207.92C306.535 217.352 319.28 216.162 329.193 210.264L328.72 174.844C328.72 174.844 333.387 206.447 342.839 204.041C350.762 202.023 345.545 181.768 342.839 174.022C339.387 164.143 334.884 150.047 332.048 146.649C324.449 137.541 318.481 139.471 318.481 139.471Z" fill="#2308B9"/>
<g opacity="0.2">
<path d="M302.804 143.97C301.777 146.071 300.363 147.792 298.934 149.44C297.971 150.552 296.969 151.662 295.772 152.269C294.576 152.875 293.132 152.896 292.091 151.914C291.05 150.931 290.641 148.792 291.451 147.488C291.987 146.627 292.87 146.313 293.693 146.046C296.443 145.157 299.192 144.268 301.942 143.379" fill="black"/>
</g>
<path d="M281.152 185.249C281.104 185.192 282.04 184.127 283.488 183.65C284.933 183.154 286.145 183.496 286.124 183.576C286.118 183.685 284.939 183.509 283.554 183.986C282.166 184.442 281.196 185.341 281.152 185.249Z" fill="#263238"/>
<path d="M283.393 182.178C283.356 182.104 284.149 181.576 285.201 181.716C286.255 181.842 286.957 182.558 286.91 182.621C286.871 182.713 286.156 182.176 285.176 182.062C284.198 181.929 283.418 182.278 283.393 182.178Z" fill="#263238"/>
<g opacity="0.2">
<path d="M286.766 183.832C285.291 182.87 283.424 183.039 282.064 184.26C281.78 184.515 281.42 184.824 281.123 184.595C280.838 184.375 280.855 183.811 281.013 183.43C281.388 182.522 282.248 182.179 283.032 182.072C284.444 181.879 285.895 182.184 287.19 182.948" fill="black"/>
</g>
<g opacity="0.2">
<path d="M314.365 168.861C313.472 171.223 310.899 172.702 309.695 175.278C308.679 177.453 308.3 180.019 307.688 182.44C306.001 189.113 302.375 194.908 297.714 198.38C298.642 196.066 299.399 193.652 299.971 191.131C300.223 188.82 299.472 186.642 299.472 186.642C300.055 184.292 302.607 181.051 303.776 179.113C305.177 176.791 306.59 174.452 308.315 172.542C310.04 170.632 312.119 169.158 314.365 168.861Z" fill="black"/>
</g>
<path d="M321.59 193.639C321.526 193.591 322.147 192.025 322.975 190.14C323.804 188.255 324.526 186.767 324.59 186.815C324.653 186.863 324.033 188.429 323.205 190.314C322.376 192.198 321.653 193.687 321.59 193.639Z" fill="#FAFAFA"/>
<path d="M335.359 184.204C335.396 184.208 335.38 184.938 335.327 186.112C335.281 187.286 335.18 188.907 335.236 190.686C335.333 194.273 336.392 196.925 336.289 196.965C336.272 196.975 336.201 196.817 336.087 196.523C335.968 196.231 335.823 195.791 335.66 195.238C335.342 194.131 335.029 192.517 334.971 190.702C334.914 188.889 335.047 187.262 335.14 186.091C335.241 184.921 335.323 184.2 335.359 184.204Z" fill="#263238"/>
<path d="M312.333 199.251C312.383 199.188 313.259 200.294 314.14 201.878C315.024 203.46 315.562 204.89 315.501 204.933C315.434 204.983 314.799 203.645 313.926 202.083C313.056 200.518 312.276 199.32 312.333 199.251Z" fill="#FAFAFA"/>
<path d="M320.981 201.84C321.014 201.753 321.857 202.217 322.865 202.874C323.873 203.532 324.663 204.135 324.631 204.221C324.598 204.307 323.755 203.844 322.747 203.186C321.739 202.528 320.948 201.926 320.981 201.84Z" fill="#FAFAFA"/>
<path d="M315.294 191.12C315.249 191.191 314.513 190.473 313.776 189.355C313.036 188.241 312.598 187.184 312.657 187.137C312.721 187.082 313.251 188.036 313.976 189.127C314.698 190.222 315.343 191.045 315.294 191.12Z" fill="#FAFAFA"/>
<path d="M304.75 200.273C304.704 200.191 305.467 199.386 306.309 198.262C307.154 197.143 307.757 196.132 307.82 196.191C307.878 196.24 307.361 197.363 306.498 198.506C305.637 199.655 304.788 200.348 304.75 200.273Z" fill="#FAFAFA"/>
<path d="M299.185 204.011C299.235 203.94 299.916 204.646 300.706 205.589C301.497 206.532 302.098 207.354 302.049 207.425C301.999 207.495 301.319 206.789 300.528 205.846C299.738 204.903 299.136 204.081 299.185 204.011Z" fill="#FAFAFA"/>
<path d="M309.732 178.389C309.694 178.307 310.547 177.527 311.638 176.647C312.729 175.766 313.644 175.119 313.683 175.201C313.721 175.282 312.868 176.063 311.777 176.943C310.686 177.824 309.77 178.471 309.732 178.389Z" fill="#FAFAFA"/>
<path d="M318.762 174.234C318.829 174.192 319.318 175.345 319.856 176.808C320.394 178.271 320.777 179.491 320.711 179.533C320.644 179.574 320.155 178.423 319.617 176.959C319.079 175.496 318.696 174.275 318.762 174.234Z" fill="#FAFAFA"/>
<path d="M324.951 172.472C324.888 172.422 325.322 171.318 325.919 170.006C326.517 168.693 327.052 167.669 327.115 167.719C327.178 167.768 326.744 168.872 326.147 170.184C325.549 171.497 325.014 172.521 324.951 172.472Z" fill="#FAFAFA"/>
<path d="M317.732 164.264C317.766 164.171 318.621 164.665 319.733 165.003C320.842 165.353 321.776 165.412 321.775 165.516C321.779 165.605 320.818 165.701 319.672 165.342C318.525 164.991 317.698 164.341 317.732 164.264Z" fill="#FAFAFA"/>
<path d="M321.988 154.987C321.915 154.993 321.796 153.868 321.721 152.474C321.646 151.078 321.645 149.943 321.718 149.936C321.791 149.929 321.911 151.054 321.986 152.45C322.06 153.844 322.061 154.98 321.988 154.987Z" fill="#FAFAFA"/>
<path d="M331.482 173.577C331.414 173.543 331.722 172.266 332.17 170.726C332.619 169.186 333.038 167.965 333.106 167.999C333.175 168.033 332.867 169.31 332.418 170.85C331.97 172.39 331.55 173.611 331.482 173.577Z" fill="#FAFAFA"/>
<path d="M332.843 180.34C332.901 180.29 333.441 181.307 333.828 182.737C334.221 184.165 334.294 185.401 334.225 185.411C334.148 185.427 333.961 184.245 333.578 182.854C333.202 181.461 332.777 180.391 332.843 180.34Z" fill="#FAFAFA"/>
<path d="M301.48 155.732C301.518 155.651 302.304 156.194 303.236 156.947C304.167 157.699 304.891 158.375 304.853 158.457C304.815 158.538 304.028 157.995 303.097 157.242C302.165 156.49 301.441 155.814 301.48 155.732Z" fill="#FAFAFA"/>
<path d="M296.554 166.678C296.501 166.601 297.207 165.709 297.9 164.428C298.6 163.153 299.014 161.988 299.086 162.029C299.15 162.057 298.836 163.316 298.116 164.631C297.401 165.95 296.595 166.748 296.554 166.678Z" fill="#FAFAFA"/>
<path d="M289.222 167.14C289.265 167.066 290.116 167.842 291.033 169.002C291.953 170.159 292.578 171.243 292.523 171.303C292.466 171.367 291.758 170.396 290.849 169.252C289.942 168.107 289.175 167.218 289.222 167.14Z" fill="#FAFAFA"/>
<path d="M290.98 157.774C290.929 157.705 291.73 156.582 292.768 155.266C293.807 153.949 294.689 152.939 294.74 153.007C294.791 153.076 293.991 154.199 292.952 155.516C291.914 156.832 291.031 157.843 290.98 157.774Z" fill="#FAFAFA"/>
<path d="M286.444 175.57C286.374 175.599 286.02 174.375 285.653 172.836C285.285 171.296 285.044 170.025 285.114 169.997C285.184 169.968 285.539 171.192 285.906 172.731C286.273 174.27 286.514 175.542 286.444 175.57Z" fill="#FAFAFA"/>
<path d="M289.953 181.289C289.88 181.28 289.92 179.876 290.042 178.153C290.163 176.429 290.321 175.04 290.394 175.049C290.467 175.058 290.427 176.462 290.305 178.185C290.184 179.908 290.026 181.298 289.953 181.289Z" fill="#FAFAFA"/>
<path d="M315.324 154.979C314.239 153.969 312.885 153.587 311.578 153.921C310.346 154.236 309.255 155.163 308.534 156.506L304.104 164.764L280.081 189.89C276.349 193.794 276.702 201.373 280.77 204.65C283.62 206.948 287.316 206.227 289.534 202.942L309.143 173.894L311.674 171.335L314.653 168.501L315.33 160C315.33 160 317.12 161.039 318.517 161.88C320.723 163.206 321.459 160.795 321.459 160.795L315.324 154.979Z" fill="#B78876"/>
<path d="M315.361 160.441C315.328 160.47 315.186 160.244 314.951 159.906C314.715 159.574 314.37 159.116 313.893 158.896C313.424 158.687 312.937 158.866 312.68 159.115C312.412 159.367 312.352 159.661 312.309 159.642C312.282 159.647 312.271 159.289 312.56 158.926C312.836 158.576 313.401 158.314 313.979 158.568C314.539 158.828 314.89 159.371 315.096 159.752C315.304 160.144 315.389 160.416 315.361 160.441Z" fill="#AA6550"/>
<path d="M312.209 162.71C312.184 162.684 312.27 162.458 312.51 162.206C312.744 161.957 313.15 161.704 313.628 161.706C314.107 161.709 314.511 161.966 314.743 162.218C314.981 162.472 315.066 162.699 315.041 162.725C315.011 162.76 314.878 162.601 314.637 162.421C314.399 162.242 314.038 162.057 313.627 162.054C313.215 162.053 312.853 162.234 312.614 162.411C312.373 162.586 312.239 162.745 312.209 162.71Z" fill="#AA6550"/>
<path d="M332.728 153.293L334.412 155.686C334.412 155.686 334.974 189.558 335.956 194.161C336.939 198.763 342.694 206.495 345.782 200.236C348.87 193.977 341.15 154.029 341.15 154.029C341.15 154.029 339.044 144.824 338.904 142.615L332.728 153.293Z" fill="#B78876"/>
<path d="M336.593 133.673L335.93 157.074C335.882 158.744 335.184 160.267 334.08 161.104L328.707 165.18C327.224 166.305 325.368 164.901 325.368 162.654V140.987C325.368 139.758 325.877 138.625 326.696 138.029L334.739 132.179C335.589 131.561 336.63 132.398 336.593 133.673Z" fill="#455A64"/>
<path d="M330.414 139.842C330.124 140.616 330.367 141.55 330.957 141.931C331.547 142.311 332.26 141.991 332.55 141.218C332.84 140.445 332.596 139.51 332.007 139.13C331.417 138.75 330.704 139.069 330.414 139.842Z" fill="#FAFAFA"/>
<path d="M338.904 142.615C338.904 142.615 334.925 135.385 334.041 135.446C333.159 135.507 328.884 138.859 329.07 139.59C329.256 140.321 330.138 140.748 330.928 140.26C331.718 139.772 333.112 138.005 333.437 138.371C333.763 138.736 334.692 140.016 334.692 140.016C334.692 140.016 330.763 142.646 330.463 143.672C330.158 144.722 329.441 146.536 330.371 147.206C330.976 147.643 331.951 147.146 332.322 145.074C332.322 145.074 331.578 148.059 332.727 148.791C333.964 149.579 334.343 147.922 335.342 146.293C336.182 144.923 336.56 146.666 336.56 146.666L338.904 142.615Z" fill="#B78876"/>
<path d="M335.891 142.677C335.886 142.732 335.604 142.698 335.164 142.77C334.726 142.838 334.122 143.045 333.561 143.524C333 144.005 332.613 144.646 332.389 145.144C332.161 145.645 332.071 145.996 332.031 145.981C332.001 145.972 332.027 145.589 332.223 145.029C332.415 144.474 332.808 143.754 333.416 143.233C334.024 142.712 334.685 142.53 335.15 142.524C335.62 142.514 335.897 142.637 335.891 142.677Z" fill="#AA6550"/>
<path d="M302.382 95.1378L302.386 98.1525L302.236 143.283C302.219 148.522 305.64 152.715 309.918 152.697C314.238 152.678 317.805 148.375 317.889 143.084C317.977 137.528 318.148 131.683 318.148 131.683C318.148 131.683 323.621 130.622 324.878 121.311C325.503 116.682 325.428 109.064 325.213 102.833C325.02 97.2254 321.31 92.9568 317.046 93.4485L302.382 95.1378Z" fill="#B78876"/>
<path d="M323.54 108.514C323.549 109.147 323.147 109.678 322.643 109.702C322.14 109.725 321.725 109.233 321.716 108.6C321.708 107.968 322.109 107.436 322.612 107.412C323.116 107.388 323.531 107.881 323.54 108.514Z" fill="#263238"/>
<path d="M323.9 106.765C323.785 106.919 323.102 106.231 322.119 106.211C321.138 106.173 320.408 106.819 320.304 106.659C320.252 106.588 320.371 106.309 320.689 106.016C321.002 105.725 321.533 105.447 322.145 105.465C322.757 105.483 323.268 105.791 323.56 106.1C323.858 106.411 323.956 106.696 323.9 106.765Z" fill="#263238"/>
<path d="M314.233 108.297C314.242 108.929 313.84 109.46 313.336 109.484C312.834 109.508 312.418 109.016 312.41 108.383C312.401 107.75 312.803 107.219 313.306 107.195C313.809 107.171 314.225 107.664 314.233 108.297Z" fill="#263238"/>
<path d="M314.239 106.78C314.124 106.934 313.44 106.247 312.459 106.227C311.478 106.189 310.747 106.835 310.643 106.675C310.592 106.604 310.709 106.325 311.029 106.032C311.342 105.741 311.873 105.463 312.485 105.481C313.097 105.499 313.607 105.806 313.899 106.116C314.196 106.427 314.295 106.712 314.239 106.78Z" fill="#263238"/>
<path d="M317.675 116.419C317.672 116.346 318.284 116.222 319.276 116.079C319.527 116.051 319.766 115.991 319.811 115.768C319.873 115.531 319.773 115.174 319.657 114.788C319.432 113.987 319.196 113.146 318.949 112.265C317.967 108.674 317.261 105.724 317.371 105.673C317.482 105.622 318.368 108.492 319.35 112.084C319.585 112.969 319.811 113.813 320.026 114.621C320.116 114.997 320.273 115.425 320.138 115.915C320.068 116.16 319.881 116.334 319.719 116.387C319.557 116.448 319.416 116.448 319.292 116.454C318.296 116.501 317.678 116.493 317.675 116.419Z" fill="#263238"/>
<path d="M318.148 131.683C318.148 131.683 313.353 131.976 308.658 128.125C308.658 128.125 310.884 134.593 318.021 133.885L318.148 131.683Z" fill="#AA6550"/>
<path d="M317.218 119.515C316.873 118.894 316.259 118.543 315.643 118.616C315.215 118.666 314.781 118.926 314.516 119.376C314.251 119.825 314.188 120.47 314.417 120.91C314.676 121.405 315.228 121.531 315.699 121.367C316.171 121.203 316.579 120.807 316.969 120.413C317.076 120.303 317.186 120.19 317.254 120.038C317.323 119.887 317.339 119.687 317.259 119.559" fill="#AA6550"/>
<path d="M314.771 117.243C314.931 117.235 314.915 118.633 315.814 119.647C316.711 120.665 317.851 120.534 317.856 120.73C317.87 120.818 317.6 120.995 317.119 121.001C316.648 121.011 315.964 120.797 315.414 120.176C314.865 119.555 314.636 118.737 314.608 118.162C314.575 117.577 314.699 117.233 314.771 117.243Z" fill="#263238"/>
<path d="M293.802 147.763C299.668 148.368 304.835 142.88 305.713 135.25C305.805 134.454 305.909 133.804 306.039 133.378C306.865 130.668 306.878 127.599 306.307 124.777C306.043 123.47 305.664 122.04 306.117 120.826C306.446 119.945 307.134 119.417 307.698 118.772C308.966 117.321 309.658 115.131 309.798 112.932C309.939 110.733 309.569 108.522 308.983 106.453C308.66 105.315 308.268 104.067 308.595 102.931C308.827 102.127 309.372 101.567 309.859 100.993C310.887 99.7778 311.749 98.3195 312.39 96.709C313.042 95.0697 313.464 92.9408 311.763 91.6422C311.407 91.3703 311.008 91.2067 310.601 91.1245C307.592 90.5126 304.005 91.1005 301.989 94.2067C300.346 96.7384 300.113 100.309 299.955 103.627C299.454 114.078 286.262 133.495 291.361 147.808L293.802 147.763Z" fill="#263238"/>
<path d="M314.561 101.736C314.459 102.084 313.481 101.895 312.326 102.051C311.168 102.176 310.233 102.597 310.084 102.279C310.018 102.126 310.184 101.801 310.565 101.47C310.942 101.141 311.541 100.833 312.234 100.748C312.927 100.665 313.559 100.823 313.975 101.057C314.396 101.291 314.605 101.571 314.561 101.736Z" fill="#263238"/>
<path d="M323.589 103.027C323.413 103.316 322.74 102.996 321.926 102.963C321.113 102.892 320.42 103.124 320.265 102.815C320.198 102.664 320.31 102.374 320.615 102.104C320.916 101.835 321.415 101.621 321.974 101.656C322.533 101.692 323.014 101.968 323.293 102.275C323.577 102.583 323.668 102.886 323.589 103.027Z" fill="#263238"/>
<path d="M350.769 109.485C350.769 110.208 350.322 110.794 349.771 110.794C349.219 110.794 348.772 110.208 348.772 109.485C348.772 108.762 349.22 108.176 349.771 108.176C350.322 108.176 350.769 108.762 350.769 109.485Z" fill="#455A64"/>
<path d="M353.766 110.794C354.317 110.794 354.764 110.208 354.764 109.485C354.764 108.762 354.317 108.176 353.766 108.176C353.215 108.176 352.768 108.762 352.768 109.485C352.768 110.208 353.215 110.794 353.766 110.794Z" fill="#455A64"/>
<path d="M358.749 108.83C359.025 109.457 358.861 110.257 358.384 110.619C357.906 110.981 357.296 110.766 357.02 110.14C356.745 109.514 356.908 108.714 357.385 108.352C357.863 107.989 358.474 108.204 358.749 108.83Z" fill="#455A64"/>
<path d="M353.828 94.192C353.828 94.186 353.896 94.1846 354.029 94.1873C354.176 94.1926 354.372 94.2 354.623 94.2093C354.753 94.2174 354.9 94.2174 355.06 94.2347C355.221 94.2641 355.395 94.2962 355.583 94.3309C355.773 94.367 355.977 94.4051 356.194 94.4458C356.409 94.5153 356.636 94.5894 356.876 94.6676C357.835 94.9909 358.996 95.5433 360.183 96.5587C361.369 97.5574 362.603 98.9862 363.603 100.927C364.585 102.871 365.343 105.317 365.543 108.063C365.563 108.75 365.626 109.45 365.575 110.16C365.557 110.515 365.562 110.875 365.523 111.233C365.481 111.59 365.44 111.95 365.398 112.313C365.175 113.746 364.85 115.213 364.287 116.581C363.737 117.951 363.028 119.255 362.161 120.416C361.278 121.554 360.247 122.541 359.099 123.301C357.955 124.068 356.687 124.598 355.366 124.804C355.039 124.889 354.705 124.889 354.371 124.915C354.037 124.943 353.701 124.959 353.365 124.939C352.691 124.903 352.016 124.792 351.349 124.605C349.899 124.2 348.534 123.426 347.336 122.39L347.458 122.406C346.067 123.138 344.702 123.856 343.37 124.557L343.128 124.685L343.197 124.356C343.609 122.388 344.01 120.475 344.398 118.624L344.419 118.766C343.272 116.766 342.54 114.483 342.237 112.217C342.086 111.084 342.021 109.953 342.078 108.861C342.096 108.314 342.116 107.774 342.195 107.249C342.226 106.986 342.257 106.725 342.287 106.465C342.324 106.207 342.384 105.957 342.43 105.706C343.22 101.672 345.115 98.6923 346.991 96.9869C347.93 96.1192 348.857 95.4973 349.705 95.1091C349.917 95.0103 350.12 94.9141 350.316 94.8219C350.518 94.7551 350.711 94.6903 350.897 94.6289C351.081 94.5687 351.259 94.5113 351.428 94.4565C351.598 94.4138 351.762 94.3904 351.916 94.3597C352.225 94.3082 352.497 94.2381 352.735 94.2227C352.969 94.2127 353.169 94.2033 353.335 94.196C353.487 94.1913 353.608 94.188 353.702 94.1853C353.786 94.1853 353.828 94.1873 353.828 94.192C353.828 94.1967 353.786 94.204 353.704 94.214C353.611 94.2234 353.49 94.2361 353.339 94.2521C353.173 94.2668 352.975 94.2842 352.742 94.3049C352.506 94.3289 352.237 94.4071 351.931 94.4665C350.728 94.7558 348.924 95.385 347.082 97.1519C345.242 98.858 343.396 101.809 342.636 105.775C342.591 106.022 342.533 106.267 342.499 106.521C342.47 106.776 342.44 107.033 342.41 107.291C342.335 107.806 342.318 108.336 342.303 108.874C342.25 109.946 342.316 111.054 342.468 112.163C342.771 114.383 343.492 116.615 344.619 118.57L344.656 118.634L344.64 118.712C344.255 120.563 343.857 122.478 343.447 124.446L343.274 124.244C344.605 123.541 345.969 122.82 347.36 122.086L347.424 122.052L347.482 122.102C348.654 123.114 349.989 123.87 351.405 124.265C352.057 124.448 352.717 124.557 353.376 124.592C353.706 124.613 354.033 124.597 354.36 124.569C354.686 124.543 355.014 124.545 355.333 124.461C356.624 124.261 357.864 123.745 358.984 122.997C360.107 122.255 361.117 121.292 361.983 120.181C362.833 119.047 363.529 117.772 364.071 116.433C364.626 115.096 364.946 113.66 365.17 112.257C365.212 111.901 365.254 111.549 365.295 111.199C365.335 110.848 365.33 110.495 365.35 110.146C365.402 109.45 365.342 108.763 365.325 108.088C365.138 105.392 364.405 102.985 363.449 101.063C362.474 99.1439 361.268 97.723 360.104 96.721C358.939 95.703 357.796 95.1379 356.851 94.7972C356.613 94.7144 356.389 94.6355 356.177 94.5621C355.962 94.516 355.761 94.4725 355.573 94.4318C355.386 94.3917 355.213 94.3543 355.054 94.3196C354.895 94.2962 354.75 94.2908 354.62 94.2775C354.371 94.2534 354.176 94.2354 354.03 94.2214C353.896 94.2087 353.828 94.198 353.828 94.192Z" fill="#455A64"/>
<path d="M126.742 216.496L108.759 220.471C102.027 212.858 93.2682 208.244 83.6821 208.244C62.4592 208.244 45.2544 230.808 45.2544 258.642C45.2544 286.476 62.4592 309.041 83.6821 309.041C104.905 309.041 122.109 286.476 122.109 258.642C122.109 250.845 120.758 243.463 118.348 236.873L126.742 216.496Z" fill="#E0E0E0"/>
<path d="M47.9302 205.729C47.9302 206.452 48.3774 207.038 48.9285 207.038C49.4801 207.038 49.9268 206.451 49.9268 205.729C49.9268 205.005 49.4796 204.419 48.9285 204.419C48.3769 204.419 47.9302 205.006 47.9302 205.729Z" fill="#263238"/>
<path d="M43.9341 205.729C43.9341 206.452 44.3813 207.038 44.9324 207.038C45.484 207.038 45.9307 206.451 45.9307 205.729C45.9307 205.005 45.4835 204.419 44.9324 204.419C44.3813 204.419 43.9341 205.006 43.9341 205.729Z" fill="#263238"/>
<path d="M39.9493 205.074C39.6737 205.701 39.8372 206.501 40.3145 206.863C40.7922 207.224 41.4024 207.01 41.6785 206.384C41.954 205.757 41.7905 204.957 41.3133 204.595C40.836 204.233 40.2253 204.448 39.9493 205.074Z" fill="#263238"/>
<path d="M44.8709 190.435C44.8709 190.441 44.8027 190.452 44.6697 190.467C44.5241 190.481 44.3285 190.5 44.0794 190.523C43.95 190.536 43.8044 190.542 43.6455 190.565C43.4866 190.599 43.3134 190.637 43.127 190.677C42.939 190.718 42.7378 190.761 42.5229 190.808C42.3115 190.882 42.0869 190.96 41.8491 191.043C40.9032 191.383 39.7603 191.948 38.5959 192.967C37.4321 193.969 36.226 195.39 35.2511 197.309C34.2951 199.231 33.5617 201.638 33.3743 204.335C33.358 205.009 33.2973 205.695 33.3498 206.393C33.3697 206.74 33.3646 207.094 33.4048 207.444C33.4461 207.794 33.4878 208.147 33.5296 208.502C33.7527 209.905 34.0741 211.342 34.6287 212.678C35.1702 214.017 35.8669 215.292 36.7165 216.426C37.5829 217.537 38.5929 218.499 39.716 219.242C40.836 219.99 42.0757 220.505 43.3664 220.706C43.6857 220.789 44.0132 220.788 44.3397 220.813C44.6662 220.841 44.9942 220.857 45.3237 220.837C45.9818 220.801 46.6419 220.693 47.2938 220.51C48.7108 220.115 50.0447 219.359 51.2172 218.347L51.2753 218.297L51.3395 218.331C52.7299 219.065 54.0939 219.786 55.4253 220.489L55.2522 220.691C54.8427 218.722 54.4449 216.807 54.0593 214.956L54.043 214.878L54.0797 214.814C55.2068 212.86 55.928 210.628 56.2311 208.407C56.3834 207.298 56.4501 206.19 56.3966 205.118C56.3813 204.581 56.3635 204.051 56.2881 203.536C56.2586 203.277 56.2291 203.02 56.2 202.765C56.1654 202.512 56.1068 202.266 56.0625 202.019C55.3031 198.053 53.4562 195.102 51.6165 193.396C49.7738 191.629 47.9707 191 46.7677 190.711C46.4616 190.651 46.1926 190.573 45.9568 190.549C45.7241 190.528 45.5254 190.511 45.3599 190.496C45.2081 190.481 45.0879 190.468 44.9947 190.458C44.9127 190.448 44.8709 190.44 44.8709 190.435C44.8709 190.431 44.9127 190.429 44.9952 190.429C45.0889 190.432 45.2096 190.435 45.3619 190.44C45.5285 190.447 45.7281 190.456 45.9624 190.467C46.2003 190.482 46.4718 190.552 46.7809 190.604C46.9347 190.635 47.0993 190.658 47.2694 190.701C47.4385 190.755 47.6152 190.813 47.8006 190.873C47.986 190.934 48.1796 190.999 48.3807 191.066C48.5768 191.158 48.7806 191.254 48.9919 191.353C49.8405 191.741 50.7665 192.363 51.7062 193.231C53.5826 194.936 55.4773 197.916 56.2667 201.95C56.3131 202.202 56.3732 202.451 56.4099 202.709C56.4404 202.969 56.4715 203.23 56.5026 203.494C56.581 204.018 56.6009 204.558 56.6187 205.105C56.6763 206.198 56.6116 207.328 56.4598 208.461C56.1567 210.728 55.4253 213.011 54.2783 215.01L54.2987 214.868C54.6868 216.719 55.0876 218.632 55.5002 220.6L55.5695 220.929L55.3275 220.801C53.9956 220.1 52.6311 219.382 51.2401 218.65L51.3619 218.634C50.1634 219.67 48.7984 220.444 47.3488 220.849C46.6816 221.036 46.0062 221.147 45.3329 221.183C44.9962 221.204 44.6606 221.187 44.3264 221.159C43.9928 221.132 43.6577 221.133 43.3312 221.048C42.011 220.841 40.7433 220.312 39.5983 219.546C38.4503 218.785 37.4194 217.798 36.5362 216.66C35.6698 215.499 34.9608 214.195 34.4107 212.825C33.8479 211.457 33.5225 209.99 33.2994 208.557C33.2576 208.194 33.2164 207.834 33.1751 207.477C33.1354 207.119 33.141 206.759 33.1221 206.404C33.0717 205.693 33.1349 204.994 33.1542 204.307C33.3549 201.56 34.1123 199.115 35.0943 197.172C36.0951 195.23 37.3277 193.802 38.5144 192.803C39.7017 191.787 40.863 191.235 41.8215 190.912C42.062 190.834 42.2896 190.759 42.5035 190.69C42.721 190.649 42.9243 190.61 43.1142 190.575C43.3027 190.54 43.4769 190.508 43.6373 190.479C43.7978 190.462 43.9444 190.461 44.0748 190.453C44.3254 190.444 44.5215 190.437 44.6682 190.431C44.8027 190.428 44.8709 190.429 44.8709 190.435Z" fill="#263238"/>
<path d="M87.8862 181.176C88.8168 178.454 90.9932 176.541 93.2709 176.441C95.5492 176.341 97.8182 178.06 98.8858 180.695C99.5214 182.262 99.772 184.131 100.69 185.437C101.835 187.065 103.944 187.324 105.3 186.003C105.672 187.905 104.773 190.082 103.353 190.719C104.104 190.82 104.855 190.92 105.605 191.021C104.39 194.5 101.062 196.092 98.1855 195.413C95.3087 194.734 92.8639 192.238 90.9061 189.399" fill="#263238"/>
<path d="M87.9027 181.225L94.8505 184.209C97.2938 186.329 99.2415 189.437 100.201 193.065C100.526 194.294 100.748 195.574 101.159 196.759C101.57 197.943 102.208 199.059 103.115 199.59C103.783 199.981 104.54 200.027 105.226 200.359C106.385 200.919 107.263 202.312 107.557 203.884C107.851 205.455 107.585 207.166 106.927 208.536C106.598 209.222 106.159 209.887 106.131 210.697C106.111 211.244 106.287 211.767 106.384 212.3C106.716 214.11 106.057 216.155 104.834 217.108C103.612 218.061 101.923 217.844 100.864 216.6C100.42 217.938 99.8288 219.315 98.8223 219.945C97.8159 220.574 96.3307 220.008 96.1213 218.576C95.6206 219.95 94.3697 220.781 93.2258 220.497C92.0818 220.213 91.1502 218.841 91.0697 217.321L72.0283 190.081C74.8709 180.115 85.9846 180.996 87.9027 181.225Z" fill="#263238"/>
<path d="M91.127 190.7C92.3525 190.87 93.2754 192.238 93.2509 193.85L91.9058 235.791C91.8549 240.745 84.9845 246.601 80.9307 246.489C76.8367 246.377 78.0402 240.693 77.9811 235.981C77.8823 228.109 77.8844 225.153 77.8823 225.198C77.8823 225.198 72.709 224.075 71.6374 215.246C71.1046 210.855 71.2732 203.656 71.5564 197.771C71.8116 192.475 74.4942 185.976 78.5287 186.534L91.127 190.7Z" fill="#FFBE9D"/>
<path d="M73.3101 203.487C73.2938 204.085 73.6676 204.596 74.1449 204.629C74.6211 204.663 75.0209 204.206 75.0372 203.609C75.0535 203.011 74.6797 202.499 74.2035 202.466C73.7262 202.432 73.3264 202.889 73.3101 203.487Z" fill="#263238"/>
<path d="M72.7501 201.517C72.8576 201.665 73.5131 201.03 74.4447 201.033C75.3752 201.019 76.0588 201.646 76.1596 201.497C76.2095 201.431 76.1 201.164 75.8021 200.881C75.5092 200.599 75.0095 200.325 74.4289 200.327C73.8488 200.331 73.3608 200.611 73.0802 200.897C72.7944 201.184 72.6972 201.451 72.7501 201.517Z" fill="#263238"/>
<path d="M82.416 203.487C82.3997 204.085 82.7736 204.596 83.2508 204.629C83.7271 204.663 84.1269 204.206 84.1432 203.608C84.1595 203.011 83.7856 202.499 83.3094 202.465C82.8322 202.432 82.4318 202.889 82.416 203.487Z" fill="#263238"/>
<path d="M81.9061 201.744C82.0136 201.892 82.6701 201.257 83.6007 201.26C84.5312 201.246 85.2148 201.873 85.3156 201.724C85.365 201.658 85.257 201.391 84.9581 201.108C84.6652 200.826 84.1655 200.552 83.5854 200.554C83.0053 200.559 82.5173 200.838 82.2367 201.124C81.9515 201.411 81.8537 201.678 81.9061 201.744Z" fill="#263238"/>
<path d="M78.5254 210.78C78.5294 210.711 77.9508 210.58 77.0127 210.423C76.7748 210.391 76.5497 210.329 76.5094 210.117C76.4534 209.892 76.5532 209.556 76.6683 209.194C76.8919 208.441 77.1262 207.652 77.3717 206.825C78.3486 203.452 79.0556 200.678 78.9517 200.628C78.8473 200.578 77.9712 203.271 76.9943 206.645C76.759 207.476 76.5344 208.269 76.3205 209.028C76.2303 209.381 76.0755 209.783 76.1972 210.249C76.2614 210.482 76.4361 210.651 76.5884 210.704C76.7407 210.765 76.8746 210.768 76.9923 210.777C77.9361 210.844 78.5218 210.85 78.5254 210.78Z" fill="#263238"/>
<path d="M77.8823 225.199C77.8823 225.199 82.423 225.582 86.9215 222.045C86.9215 222.045 84.7288 228.109 77.9735 227.284L77.8823 225.199Z" fill="#EB996E"/>
<path d="M78.9199 213.717C79.2551 213.137 79.8418 212.819 80.4245 212.901C80.8289 212.958 81.2374 213.213 81.4829 213.643C81.7284 214.074 81.7798 214.685 81.5567 215.095C81.3056 215.558 80.78 215.664 80.3359 215.5C79.8912 215.335 79.5087 214.951 79.1456 214.57C79.0452 214.465 78.9423 214.355 78.8797 214.21C78.817 214.066 78.8033 213.876 78.8812 213.757" fill="#EB996E"/>
<path d="M81.2668 211.623C81.1155 211.612 81.1135 212.934 80.2481 213.873C79.3843 214.815 78.3065 214.667 78.2989 214.851C78.2846 214.934 78.5388 215.108 78.9936 215.124C79.4398 215.144 80.0918 214.956 80.621 214.383C81.1491 213.807 81.3758 213.039 81.4104 212.496C81.4486 211.943 81.3361 211.616 81.2668 211.623Z" fill="#263238"/>
<path d="M81.4873 199.611C81.579 199.942 82.5091 199.786 83.6021 199.958C84.6977 200.101 85.5788 200.52 85.724 200.223C85.7887 200.081 85.6353 199.769 85.2788 199.448C84.9258 199.128 84.362 198.824 83.706 198.728C83.05 198.635 82.4495 198.77 82.0512 198.983C81.6498 199.194 81.4476 199.454 81.4873 199.611Z" fill="#263238"/>
<path d="M73.0929 197.991C73.2569 198.267 73.8982 197.98 74.6698 197.967C75.4409 197.918 76.0949 198.152 76.2452 197.863C76.3114 197.723 76.2085 197.446 75.9228 197.183C75.6416 196.922 75.171 196.709 74.6408 196.729C74.1105 196.751 73.6511 197.002 73.3827 197.286C73.1097 197.57 73.0206 197.856 73.0929 197.991Z" fill="#263238"/>
<path d="M92.5042 204.822C93.0155 204.359 93.7306 204.53 94.269 204.938C95.5092 205.876 96.126 208.021 95.6656 209.796C95.2052 211.571 93.7179 212.782 92.2974 212.54" fill="#FFBE9D"/>
<path d="M81.8925 183.594C79.4329 183.7 77.5672 184.679 75.4077 186.225C73.2481 187.771 71.4435 190.32 70.7783 193.42C70.6372 194.078 70.5568 194.828 70.8323 195.409C71.196 196.175 72.0552 196.302 72.6837 195.93C73.3123 195.559 73.763 194.823 74.1893 194.114C74.5087 195.734 75.7367 196.965 77.0156 196.946C78.2946 196.928 79.5017 195.661 79.793 194.032C79.8032 195.728 81.1 197.129 82.3947 197.068C83.6899 197.007 84.8364 195.7 85.2673 194.102C85.5082 195.608 85.765 197.165 86.4546 198.413C87.1437 199.66 88.3916 200.518 89.5101 200.041C89.3517 201.357 89.1973 202.742 89.5544 203.99C89.9114 205.237 90.9708 206.247 91.934 205.815C92.8691 205.394 93.2318 203.946 93.4508 202.684C93.8725 200.252 94.2336 197.777 94.174 195.284C94.1145 192.792 93.6051 190.257 92.4367 188.286C91.2276 186.248 89.3965 184.955 87.4896 184.296C85.5826 183.638 83.5876 183.564 81.6154 183.597" fill="#263238"/>
<path d="M92.9756 209.906C92.9949 209.843 93.2379 209.981 93.5639 209.785C93.8847 209.619 94.1766 208.998 94.143 208.277C94.1241 207.546 93.7625 207.021 93.4233 206.861C93.0856 206.68 92.837 206.769 92.8228 206.7C92.7994 206.656 93.052 206.422 93.4977 206.552C93.7121 206.618 93.9627 206.785 94.1578 207.091C94.3513 207.391 94.4766 207.809 94.4929 208.253C94.5418 209.143 94.1145 209.951 93.6484 210.089C93.188 210.248 92.9394 209.942 92.9756 209.906Z" fill="#EB996E"/>
<path d="M93.177 213.614C93.6631 213.614 94.0571 213.099 94.0571 212.463C94.0571 211.827 93.6631 211.311 93.177 211.311C92.6909 211.311 92.2969 211.827 92.2969 212.463C92.2969 213.099 92.6909 213.614 93.177 213.614Z" fill="#7FA6E1"/>
<path d="M87.9927 180.778C87.9871 180.745 88.4002 180.588 89.0888 180.614C89.7739 180.635 90.7294 180.907 91.6462 181.596C92.5615 182.291 93.2205 183.239 93.5776 184.006C93.9397 184.775 94.0426 185.323 94.0176 185.333C93.9743 185.357 93.8103 184.85 93.4222 184.144C93.0377 183.437 92.3893 182.562 91.5138 181.898C90.6362 181.239 89.7347 180.943 89.0756 180.859C88.4155 180.772 87.9983 180.839 87.9927 180.778Z" fill="#7FA6E1"/>
<path d="M91.521 180.782C91.5118 180.783 91.5037 180.689 91.4976 180.504C91.4991 180.322 91.5215 180.045 91.6264 179.718C91.8189 179.065 92.4169 178.242 93.3688 177.949C94.332 177.605 95.5508 178.252 96.3973 179.474C96.8303 180.081 97.1965 180.816 97.4955 181.621C97.7955 182.424 98.0399 183.287 98.2982 184.157C98.5564 185.026 98.8238 185.866 99.1625 186.609C99.5022 187.35 99.9179 187.997 100.389 188.488C100.858 188.98 101.389 189.303 101.914 189.399C102.437 189.514 102.938 189.365 103.352 189.136C104.189 188.641 104.655 187.8 104.87 187.201C105.079 186.583 105.09 186.193 105.118 186.199C105.127 186.2 105.126 186.295 105.114 186.478C105.1 186.659 105.058 186.926 104.964 187.254C104.77 187.893 104.309 188.802 103.43 189.359C102.994 189.619 102.454 189.796 101.883 189.685C101.314 189.594 100.738 189.254 100.238 188.74C99.7345 188.228 99.2965 187.554 98.9394 186.786C98.5839 186.013 98.3109 185.158 98.0506 184.284C97.5454 182.536 97.0559 180.86 96.2175 179.692C95.4148 178.516 94.3004 177.903 93.4076 178.19C92.5132 178.434 91.9279 179.177 91.7196 179.775C91.495 180.381 91.5571 180.788 91.521 180.782Z" fill="#455A64"/>
<path d="M78.8047 194.417C78.7956 194.419 78.7808 194.335 78.7614 194.175C78.7467 194.014 78.7059 193.777 78.6993 193.467C78.6585 192.85 78.6728 191.943 78.8241 190.848C78.9718 189.752 79.3028 188.479 79.8555 187.193C80.4213 185.922 81.2281 184.64 82.2982 183.659C83.3612 182.671 84.5286 182.056 85.6145 181.699C86.703 181.333 87.7226 181.24 88.5686 181.303C89.4157 181.367 90.0915 181.564 90.5372 181.773C90.7649 181.857 90.9279 181.976 91.043 182.036C91.1561 182.104 91.2136 182.144 91.2095 182.155C91.1932 182.236 90.2342 181.601 88.5615 181.548C87.7318 181.518 86.7366 181.635 85.6761 182.009C84.6177 182.374 83.4819 182.985 82.4521 183.943C81.4166 184.891 80.6292 186.126 80.0669 187.354C79.5178 188.597 79.176 189.829 79.0079 190.895C78.6626 193.039 78.8704 194.417 78.8047 194.417Z" fill="#455A64"/>
<path d="M83.0571 193.823C83.0408 193.822 83.0265 193.578 83.0388 193.136C83.05 192.693 83.1024 192.053 83.2349 191.277C83.4911 189.735 84.1542 187.629 85.425 185.834C86.6963 184.039 88.2477 183.015 89.4009 182.564C89.98 182.332 90.4628 182.215 90.7985 182.166C91.1341 182.116 91.321 182.116 91.3226 182.137C91.3302 182.202 90.583 182.283 89.4599 182.797C88.3435 183.299 86.8527 184.33 85.6196 186.071C84.387 187.812 83.7152 189.838 83.4172 191.336C83.1106 192.844 83.1075 193.828 83.0571 193.823Z" fill="#455A64"/>
<path d="M81.8923 245.974C80.4188 240.05 76.8148 234.018 72.8552 236.194C68.448 238.616 67.223 241.686 64.8078 246.444C62.3925 251.201 60.9109 256.646 59.4526 262.029C58.8822 264.135 58.3316 266.577 59.2066 268.496C59.961 270.151 61.5139 270.805 62.937 271.301C66.6072 272.581 70.3152 273.678 74.0491 274.589C75.5471 274.954 77.1907 275.26 78.5155 274.275C80.1983 273.023 80.7112 270.22 81.0616 267.73C82.2917 258.99 83.5217 250.249 84.7512 241.509" fill="#7FA6E1"/>
<path d="M77.6536 233.351L71.8559 236.63C68.9257 239.656 68.097 244.839 68.1968 249.72L65.7861 303.253C65.7861 303.253 82.696 316.961 102.457 302.625C102.972 302.252 99.148 290.008 99.148 290.008L104.53 263.277C104.945 259.433 105.198 251.465 104.433 247.682C102.471 237.982 97.2258 235.08 91.838 233.137C91.838 233.137 86.4477 239.069 81.1889 237.819C81.1889 237.819 77.9811 237.428 77.6536 233.351Z" fill="#7FA6E1"/>
<g opacity="0.2">
<path d="M69.8672 277.919C73.212 284.276 76.5568 290.634 79.9016 296.99C81.2095 299.476 82.5689 302.028 84.5095 303.654C87.3297 306.018 91.2154 305.965 93.9984 303.526C96.7809 301.087 98.3043 296.398 97.7186 292.077C97.6493 291.565 97.5433 291.034 97.2729 290.654C96.8552 290.066 96.1468 289.996 95.5595 290.224C94.9722 290.452 94.4604 290.923 93.9189 291.3C90.7687 293.493 86.7674 292.314 83.8117 289.696C80.8561 287.078 78.6863 283.238 76.4233 279.623C75.5865 278.286 74.6722 276.917 73.4341 276.32C72.1959 275.722 70.5522 276.211 70.0276 277.798" fill="black"/>
</g>
<path d="M86.7667 251.691C88.6798 251.691 90.2307 249.662 90.2307 247.159C90.2307 244.657 88.6798 242.628 86.7667 242.628C84.8536 242.628 83.3027 244.657 83.3027 247.159C83.3027 249.662 84.8536 251.691 86.7667 251.691Z" fill="white"/>
<path d="M70.6206 243.293C70.6206 245.795 72.1715 247.825 74.0846 247.825C75.9976 247.825 77.5486 245.796 77.5486 243.293C77.5486 240.791 75.9976 238.761 74.0846 238.761C72.1715 238.761 70.6206 240.79 70.6206 243.293Z" fill="white"/>
<path d="M67.8262 286.684C67.8262 289.186 69.3771 291.215 71.2901 291.215C73.2032 291.215 74.7541 289.187 74.7541 286.684C74.7541 284.181 73.2032 282.152 71.2901 282.152C69.3771 282.153 67.8262 284.181 67.8262 286.684Z" fill="white"/>
<path d="M77.5494 304.262C79.4625 304.262 81.0134 302.233 81.0134 299.73C81.0134 297.228 79.4625 295.199 77.5494 295.199C75.6363 295.199 74.0854 297.228 74.0854 299.73C74.0854 302.233 75.6363 304.262 77.5494 304.262Z" fill="white"/>
<path d="M93.6944 305.361C95.6075 305.361 97.1584 303.332 97.1584 300.829C97.1584 298.326 95.6075 296.297 93.6944 296.297C91.7813 296.297 90.2305 298.326 90.2305 300.829C90.2305 303.332 91.7813 305.361 93.6944 305.361Z" fill="white"/>
<path d="M80.0157 277.462C81.9288 277.462 83.4797 275.433 83.4797 272.93C83.4797 270.427 81.9288 268.398 80.0157 268.398C78.1026 268.398 76.5518 270.427 76.5518 272.93C76.5518 275.433 78.1026 277.462 80.0157 277.462Z" fill="white"/>
<path d="M76.5519 263.174C78.465 263.174 80.0158 261.145 80.0158 258.642C80.0158 256.14 78.465 254.111 76.5519 254.111C74.6388 254.111 73.0879 256.14 73.0879 258.642C73.0879 261.145 74.6388 263.174 76.5519 263.174Z" fill="white"/>
<path d="M76.5521 234.452C76.6137 234.393 76.9804 235.841 78.3373 237.334C79.004 238.079 79.9244 238.77 81.024 239.245C82.1242 239.711 83.4113 239.932 84.7381 239.741C86.0664 239.529 87.2919 238.988 88.3325 238.313C89.3776 237.642 90.2496 236.863 90.9443 236.151C91.6401 235.438 92.1693 234.804 92.5268 234.355C92.8849 233.907 93.081 233.654 93.0962 233.672C93.1085 233.686 92.9378 233.97 92.6002 234.451C92.263 234.931 91.7496 235.598 91.0609 236.343C90.3733 237.088 89.4998 237.9 88.4404 238.6C87.3861 239.304 86.1326 239.869 84.7676 240.086C83.398 240.284 82.0733 240.045 80.9461 239.549C79.82 239.044 78.8833 238.31 78.2145 237.521C77.5422 236.737 77.1062 235.956 76.8699 235.378C76.7354 235.101 76.6753 234.854 76.6173 234.7C76.5663 234.542 76.5434 234.457 76.5521 234.452Z" fill="#263238"/>
<path d="M94.0049 234.143C97.966 236.314 102.089 238.64 104.825 242.97C107.606 247.373 108.574 253.355 108.372 259.06C108.169 264.764 106.903 270.302 105.646 275.77C105.155 277.91 104.495 280.306 102.922 281.176C101.565 281.927 100.018 281.253 98.6455 280.553C95.1066 278.747 91.6207 276.764 88.1975 274.611C86.8244 273.747 85.3605 272.722 84.7376 270.903C83.9461 268.592 84.7998 265.935 85.6427 263.656C88.6014 255.656 91.5596 247.656 94.5183 239.656" fill="#7FA6E1"/>
<path d="M102.457 266.358C104.37 266.358 105.921 264.329 105.921 261.826C105.921 259.323 104.37 257.294 102.457 257.294C100.544 257.294 98.9927 259.323 98.9927 261.826C98.9927 264.329 100.544 266.358 102.457 266.358Z" fill="white"/>
<path d="M93.2828 274.642C95.1959 274.642 96.7468 272.613 96.7468 270.11C96.7468 267.607 95.1959 265.578 93.2828 265.578C91.3697 265.578 89.8188 267.607 89.8188 270.11C89.8188 272.613 91.3697 274.642 93.2828 274.642Z" fill="white"/>
<path d="M94.1997 247.866C94.1997 250.32 95.7206 252.309 97.5964 252.309C99.4723 252.309 100.993 250.32 100.993 247.866C100.993 245.412 99.4723 243.423 97.5964 243.423C95.7201 243.423 94.1997 245.413 94.1997 247.866Z" fill="white"/>
<path d="M87.1602 273.91L86.2771 278.371L68.676 261.545L63.2863 251.499C62.565 250.155 61.4746 249.228 60.2425 248.914C58.9355 248.58 57.5812 248.962 56.4958 249.972L51.4814 254.638C51.4814 254.638 51.6169 258.181 52.8353 257.472C54.0536 256.764 56.4907 254.992 56.4907 254.992L57.1676 263.493L60.1462 266.327L63.1248 269.338L82.9985 295.211C87.2799 300.786 94.4768 299.247 97.1783 292.179L100.123 281.212L87.1602 273.91Z" fill="#FFBE9D"/>
<path d="M85.8333 277.736C85.844 277.701 86.1735 277.842 86.5723 278.332C86.9726 278.813 87.3934 279.672 87.6017 280.723C87.809 281.773 87.8105 282.752 87.7927 283.443C87.7703 284.138 87.7254 284.563 87.6903 284.562C87.6521 284.561 87.6307 284.132 87.6047 283.444C87.5752 282.759 87.5426 281.809 87.345 280.811C87.1468 279.817 86.7806 278.999 86.4373 278.503C86.0976 278 85.8109 277.785 85.8333 277.736Z" fill="#EB996E"/>
<path d="M56.4595 255.433C56.4309 255.408 56.516 255.137 56.7238 254.744C56.9296 254.363 57.281 253.82 57.8408 253.559C58.4184 253.306 58.9837 253.567 59.2603 253.918C59.5486 254.281 59.5379 254.638 59.5109 254.634C59.4681 254.653 59.4085 254.358 59.1401 254.107C58.8829 253.858 58.3965 253.68 57.9268 253.888C57.4496 254.107 57.1048 254.566 56.8695 254.897C56.6336 255.236 56.4915 255.462 56.4595 255.433Z" fill="#EB996E"/>
<path d="M59.6106 257.702C59.5806 257.738 59.4471 257.579 59.2057 257.403C58.9668 257.225 58.6047 257.044 58.1931 257.046C57.7816 257.048 57.4205 257.233 57.1826 257.413C56.9422 257.592 56.8098 257.752 56.7797 257.717C56.7543 257.691 56.8393 257.464 57.0772 257.21C57.3099 256.958 57.7138 256.701 58.1926 256.698C58.6714 256.696 59.0763 256.948 59.3106 257.198C59.5495 257.45 59.6361 257.676 59.6106 257.702Z" fill="#EB996E"/>
<path d="M87.1601 273.91C87.1601 273.91 87.0363 273.913 86.8219 273.804C86.61 273.698 86.3003 273.469 86.0273 273.014C85.7543 272.565 85.519 271.903 85.4487 271.087C85.3744 270.266 85.5287 269.328 85.8226 268.388C86.1114 267.44 86.5453 266.487 86.9146 265.417C87.2925 264.35 87.62 263.164 87.922 261.899C88.5251 259.365 88.9601 256.493 89.5692 253.517C90.1789 250.545 90.9836 247.749 92.1403 245.518C93.2695 243.264 94.7797 241.703 96.1844 240.855C97.5958 239.983 98.89 239.829 99.7472 239.907C100.613 239.99 101.061 240.234 101.061 240.234C101.054 240.277 100.595 240.082 99.7426 240.042C98.8977 240.008 97.6365 240.196 96.2654 241.077C94.8979 241.94 93.4412 243.476 92.3436 245.696C91.22 247.894 90.4315 250.654 89.8254 253.608C89.2198 256.567 88.7762 259.446 88.1558 261.995C87.8446 263.267 87.5059 264.462 87.1142 265.539C86.7292 266.621 86.2886 267.563 85.9962 268.483C85.6983 269.395 85.5404 270.289 85.5969 271.068C85.6504 271.847 85.8618 272.49 86.1103 272.931C86.3589 273.379 86.6451 273.615 86.8438 273.739C87.0439 273.866 87.1636 273.889 87.1601 273.91Z" fill="#263238"/>
<path d="M67.6266 259.405C67.5537 259.393 67.7493 256.8 68.0625 253.614C68.3758 250.427 68.689 247.854 68.7619 247.866C68.8347 247.878 68.6391 250.471 68.3259 253.658C68.0121 256.844 67.6989 259.417 67.6266 259.405Z" fill="#263238"/>
<path d="M59.7098 269.326L58.7752 278.972L47.5607 266.435L41.4268 268.378C41.4268 268.378 47.7511 285.794 52.7472 292.693C57.7433 299.591 60.4376 300.572 62.3227 300.68C64.9147 300.829 66.0989 296.69 66.0989 296.69L67.2281 272.716L59.7098 269.326Z" fill="#FFBE9D"/>
<path d="M58.8185 278.714C58.8811 278.674 59.3156 279.714 59.6089 281.117C59.9064 282.519 59.941 283.704 59.8718 283.712C59.7954 283.723 59.6451 282.58 59.3533 281.21C59.0665 279.838 58.7482 278.756 58.8185 278.714Z" fill="#EB996E"/>
<path d="M46.4764 241.987H38.0342C36.7567 241.987 35.6169 243.929 36.0758 245.516L44.5653 267.203C44.8933 268.044 45.554 268.572 46.2752 268.572L56.5673 268.543C57.7474 268.335 58.1783 266.618 57.6888 265.686L49.4972 244.453C48.9334 242.944 47.7614 241.987 46.4764 241.987Z" fill="#455A64"/>
<path d="M45.9066 243.293H37.4644C36.4065 243.293 35.7225 244.755 36.2038 245.988L44.4917 267.203C44.8197 268.044 45.4803 268.572 46.2015 268.572H56.3759C56.9963 268.572 57.3987 267.716 57.1191 266.992L48.9275 245.76C48.3636 244.25 47.1911 243.293 45.9066 243.293Z" fill="#263238"/>
<path d="M45.1905 252.175L40.0528 254.867L38.9517 260.296L41.4265 268.378L50.5054 270.11L47.8462 266.547L48.1884 263.444C48.1884 263.444 50.7213 262.402 50.784 261.894C50.8466 261.386 50.4697 259.681 50.0811 259.6C49.6925 259.518 47.0358 260.815 47.0358 260.815C47.0358 260.815 50.1804 257.55 50.0923 257.026C50.0042 256.501 49.6665 255.16 49.0395 255.012C48.4125 254.863 43.338 257.999 43.338 257.999L42.5139 260.463L41.7953 256.523C41.7958 256.521 46.3044 254.863 45.1905 252.175Z" fill="#FFBE9D"/>
<path d="M45.837 264.904C45.8064 264.916 45.7102 264.67 45.6628 264.233C45.6139 263.798 45.6378 263.17 45.8166 262.532C45.9974 261.895 46.2913 261.398 46.5439 261.11C46.7971 260.818 46.9921 260.713 47.009 260.748C47.0594 260.829 46.3906 261.461 46.0652 262.654C45.7198 263.836 45.9149 264.887 45.837 264.904Z" fill="#EB996E"/>
<path d="M43.3949 263.728C43.3649 263.708 43.5472 263.071 43.5987 261.962C43.6384 261.413 43.6623 260.732 43.8574 260.007C43.9557 259.648 44.1014 259.276 44.3306 258.964C44.5593 258.648 44.8628 258.432 45.17 258.272C46.3985 257.687 47.5047 257.214 48.3146 256.871C49.1229 256.533 49.6292 256.346 49.6414 256.392C49.6536 256.437 49.1692 256.706 48.3767 257.103C47.5878 257.503 46.4749 258.021 45.2693 258.594C44.9774 258.747 44.7131 258.937 44.517 259.201C44.3183 259.465 44.1834 259.791 44.0866 260.119C43.8941 260.781 43.8482 261.44 43.7851 261.991C43.6852 263.109 43.4301 263.756 43.3949 263.728Z" fill="#EB996E"/>
<path d="M42.2163 262.51C42.144 262.495 42.1588 261.899 42.2489 261.181C42.3391 260.463 42.471 259.894 42.5433 259.909C42.6156 259.925 42.6009 260.52 42.5107 261.238C42.4206 261.956 42.2887 262.526 42.2163 262.51Z" fill="#EB996E"/>
<path d="M42.0781 247.384C42.0781 248.163 42.5594 248.795 43.1538 248.795C43.7477 248.795 44.2295 248.164 44.2295 247.384C44.2295 246.606 43.7482 245.974 43.1538 245.974C42.5594 245.974 42.0781 246.606 42.0781 247.384Z" fill="#FAFAFA"/>
<path d="M63.1245 269.338C63.1327 269.327 63.2417 269.441 63.4383 269.665C63.6603 269.925 63.94 270.253 64.2797 270.653C65.0274 271.559 66.0399 272.787 67.244 274.247L67.2832 274.295L67.2786 274.369C67.1452 276.618 66.9878 279.263 66.8197 282.092C66.5875 286.236 66.4056 289.99 66.3043 292.708C66.259 294.024 66.2218 295.11 66.1938 295.927C66.1724 296.688 66.1515 297.109 66.1331 297.109C66.1148 297.109 66.1006 296.688 66.0904 295.926C66.0827 295.164 66.0868 294.061 66.1163 292.699C66.1698 289.974 66.3221 286.215 66.5549 282.068C66.7143 279.227 66.8875 276.575 67.052 274.343L67.0871 274.465C65.9096 272.968 64.9194 271.71 64.188 270.781C63.8651 270.357 63.6002 270.009 63.3894 269.733C63.2091 269.486 63.1164 269.35 63.1245 269.338Z" fill="#EB996E"/>
<path d="M148.245 99.4886L130.142 87.7117C124.071 70.3577 110.716 58.2983 95.2055 58.2983C73.9826 58.2983 56.7783 80.8627 56.7783 108.697C56.7783 136.531 73.9826 159.096 95.2055 159.096C115.893 159.096 132.755 137.653 133.592 110.791L148.245 99.4886Z" fill="#E0E0E0"/>
<path d="M129.948 53.8822C129.948 54.6056 129.501 55.1914 128.949 55.1914C128.398 55.1914 127.951 54.6049 127.951 53.8822C127.951 53.1594 128.398 52.5729 128.949 52.5729C129.501 52.5722 129.948 53.1587 129.948 53.8822Z" fill="#07A6B9"/>
<path d="M133.943 53.8822C133.943 54.6056 133.496 55.1914 132.945 55.1914C132.393 55.1914 131.946 54.6049 131.946 53.8822C131.946 53.1594 132.393 52.5729 132.945 52.5729C133.496 52.5722 133.943 53.1587 133.943 53.8822Z" fill="#07A6B9"/>
<path d="M137.928 53.2276C138.204 53.8542 138.04 54.6544 137.563 55.0165C137.085 55.3779 136.475 55.1635 136.199 54.5375C135.923 53.9116 136.087 53.1107 136.564 52.7486C137.042 52.3866 137.653 52.601 137.928 53.2276Z" fill="#07A6B9"/>
<path d="M133.006 38.589C133.006 38.583 133.075 38.5817 133.208 38.5843C133.355 38.5897 133.551 38.597 133.801 38.6064C133.932 38.6144 134.079 38.6144 134.239 38.6318C134.399 38.6612 134.574 38.6932 134.762 38.728C134.952 38.7634 135.156 38.8021 135.373 38.8429C135.587 38.9123 135.814 38.9865 136.055 39.0646C137.013 39.388 138.175 39.9404 139.362 40.9557C140.548 41.9544 141.781 43.3833 142.782 45.3245C143.764 47.2683 144.522 49.7139 144.722 52.46C144.741 53.1474 144.805 53.8468 144.754 54.5569C144.735 54.9116 144.741 55.2723 144.701 55.6297C144.66 55.9871 144.619 56.3471 144.577 56.7099C144.354 58.1427 144.028 59.6103 143.466 60.9777C142.915 62.3478 142.207 63.6524 141.34 64.8134C140.457 65.951 139.426 66.9376 138.278 67.6985C137.134 68.4653 135.865 68.995 134.545 69.2008C134.218 69.2856 133.883 69.2856 133.55 69.3117C133.216 69.3404 132.88 69.3564 132.543 69.3357C131.87 69.2997 131.195 69.1888 130.527 69.0017C129.078 68.5969 127.713 67.8227 126.514 66.7866L126.636 66.8027C125.245 67.5348 123.881 68.2529 122.548 68.9543L122.306 69.0819L122.376 68.7526C122.788 66.7853 123.189 64.8722 123.577 63.0211L123.598 63.1627C122.451 61.1634 121.72 58.8802 121.417 56.6137C121.265 55.4814 121.2 54.3505 121.258 53.2583C121.275 52.7112 121.295 52.1715 121.374 51.6471C121.405 51.3839 121.436 51.1227 121.466 50.8629C121.503 50.605 121.563 50.3552 121.61 50.104C122.399 46.07 124.294 43.09 126.17 41.3846C127.109 40.5169 128.036 39.895 128.884 39.5069C129.096 39.408 129.299 39.3118 129.496 39.2196C129.697 39.1528 129.89 39.088 130.076 39.0266C130.261 38.9664 130.438 38.909 130.606 38.8542C130.777 38.8115 130.941 38.7881 131.095 38.7574C131.405 38.7059 131.676 38.6358 131.914 38.6204C132.148 38.6097 132.348 38.601 132.514 38.5937C132.667 38.589 132.787 38.5857 132.881 38.583C132.965 38.5823 133.006 38.5843 133.006 38.589C133.006 38.5937 132.965 38.601 132.883 38.6111C132.789 38.6204 132.669 38.6331 132.517 38.6491C132.352 38.6638 132.153 38.6812 131.921 38.7019C131.684 38.726 131.416 38.8041 131.11 38.8636C129.907 39.1528 128.103 39.7821 126.261 41.5489C124.421 43.255 122.575 46.2062 121.815 50.1721C121.77 50.4193 121.712 50.6645 121.677 50.9183C121.648 51.1735 121.619 51.43 121.589 51.6885C121.514 52.2035 121.497 52.7333 121.481 53.271C121.428 54.3431 121.494 55.4513 121.646 56.5602C121.949 58.78 122.671 61.0124 123.798 62.967L123.834 63.0311L123.818 63.1093C123.433 64.961 123.035 66.8755 122.625 68.8441L122.453 68.6423C123.784 67.9389 125.148 67.2188 126.538 66.4847L126.603 66.4506L126.661 66.5007C127.833 67.5128 129.167 68.2683 130.584 68.6637C131.236 68.8468 131.896 68.955 132.554 68.9904C132.884 69.0104 133.212 68.995 133.538 68.967C133.865 68.9416 134.192 68.9429 134.511 68.8594C135.802 68.6597 137.042 68.1433 138.162 67.3952C139.285 66.6537 140.295 65.6905 141.161 64.5796C142.011 63.4453 142.707 62.1708 143.249 60.8314C143.804 59.4948 144.125 58.0586 144.348 56.6551C144.39 56.2997 144.432 55.947 144.473 55.597C144.513 55.2463 144.508 54.8929 144.528 54.5449C144.581 53.8481 144.52 53.1614 144.503 52.4868C144.316 49.7907 143.582 47.3832 142.626 45.4614C141.651 43.5422 140.445 42.1214 139.281 41.1194C138.117 40.1014 136.974 39.5362 136.028 39.1956C135.791 39.1127 135.566 39.0339 135.354 38.9604C135.139 38.9143 134.938 38.8709 134.75 38.8302C134.564 38.7901 134.391 38.7527 134.232 38.7179C134.073 38.6946 133.927 38.6892 133.798 38.6759C133.549 38.6518 133.354 38.6331 133.208 38.6198C133.075 38.6051 133.007 38.595 133.006 38.589Z" fill="#07A6B9"/>
<path d="M118.481 103.329C118.554 103.33 118.557 108.063 118.488 113.899C118.418 119.736 118.303 124.466 118.229 124.464C118.156 124.462 118.153 119.73 118.222 113.893C118.292 108.058 118.407 103.327 118.481 103.329Z" fill="#07A6B9"/>
<path d="M103.674 78.3076C103.683 78.3089 103.678 78.4292 103.658 78.657C103.644 78.8867 103.6 79.2194 103.53 79.6469C103.387 80.4973 103.078 81.7151 102.459 83.0597C101.833 84.3884 100.875 85.8413 99.5214 86.9408C98.1782 88.053 96.4297 88.701 94.5976 88.6402C92.765 88.5647 91.0471 87.7878 89.7539 86.5774C88.4495 85.379 87.5561 83.8567 86.9887 82.4839C86.4284 81.0952 86.1733 79.8574 86.0663 78.997C86.0154 78.5654 85.9853 78.2294 85.9817 77.999C85.9726 77.7699 85.9721 77.6496 85.9812 77.6489C86.0098 77.6456 86.0296 78.1272 86.1677 78.9709C86.3042 79.8133 86.5833 81.019 87.1532 82.365C87.7298 83.6957 88.6181 85.1639 89.8929 86.3136C91.1556 87.4746 92.8236 88.2187 94.6048 88.2922C96.3859 88.3503 98.083 87.7317 99.3935 86.6669C100.716 85.6135 101.666 84.214 102.299 82.9288C102.926 81.6276 103.257 80.4439 103.43 79.6135C103.605 78.7812 103.645 78.3022 103.674 78.3076Z" fill="#07A6B9"/>
<path d="M72.5801 104.755C72.6534 104.755 72.7146 109.37 72.7166 115.062C72.7186 120.755 72.6611 125.369 72.5877 125.369C72.5144 125.369 72.4533 120.755 72.4512 115.062C72.4492 109.37 72.5067 104.755 72.5801 104.755Z" fill="#07A6B9"/>
<path d="M87.6191 76.4579L102.748 76.4666C102.748 76.4666 116.425 82.8406 120.872 87.3115C125.319 91.7825 132.137 123.276 132.137 123.276L118.477 122.747L117.452 149.797C103.459 162.865 86.6692 161.91 73.699 150.468L72.6865 124.863C72.6865 124.863 65.1529 124.572 61.3075 124.424C57.462 124.275 57.2827 122.888 57.2827 122.888C57.2827 122.888 66.028 92.7558 68.6964 86.9234C71.021 81.84 84.5417 77.3009 87.6191 76.4579Z" fill="#07A6B9"/>
<path d="M124.009 94.524C124.009 94.524 123.839 94.7003 123.468 94.9361C123.101 95.1746 122.52 95.4558 121.739 95.562C120.961 95.6769 119.989 95.6095 118.909 95.2641C117.824 94.9368 116.649 94.2922 115.397 93.5046C114.139 92.7357 112.781 91.8079 111.214 91.2615C109.652 90.709 107.877 90.7377 106.114 91.3443C104.346 91.9341 102.595 93.0116 100.848 94.2661C99.1017 95.526 97.3297 96.9548 95.3821 98.0984C93.4425 99.2354 91.3675 99.9875 89.3342 99.8546C87.3045 99.7424 85.4246 98.9268 83.7351 97.9762C82.038 97.0196 80.509 95.9014 79.0523 94.9381C77.5987 93.9669 76.2169 93.1352 74.9007 92.5741C72.2695 91.4231 69.9465 91.4999 68.4582 92.013C67.7084 92.2588 67.1533 92.5721 66.7891 92.8112C66.6047 92.9254 66.4733 93.0357 66.3791 93.0964C66.2864 93.1612 66.238 93.192 66.2355 93.1866C66.2329 93.1813 66.2767 93.1405 66.3653 93.0657C66.455 92.9949 66.5828 92.8733 66.7647 92.7484C67.1232 92.4879 67.6779 92.1506 68.4327 91.8814C69.9307 91.3209 72.2884 91.2047 74.9583 92.3396C76.2917 92.8914 77.6893 93.7177 79.1511 94.6796C80.616 95.6342 82.1465 96.7411 83.8309 97.6803C85.5086 98.6155 87.3631 99.4084 89.3444 99.5133C91.3267 99.6388 93.3549 98.9047 95.2741 97.7798C97.2009 96.6489 98.9667 95.2287 100.723 93.9662C102.481 92.7097 104.253 91.6248 106.054 91.0323C107.847 90.4224 109.674 90.4031 111.27 90.9816C112.867 91.5527 114.227 92.5006 115.477 93.2815C116.724 94.0824 117.876 94.733 118.944 95.0737C120.007 95.4324 120.962 95.5179 121.729 95.4258C122.498 95.3416 123.076 95.0864 123.446 94.8707C123.819 94.6602 124.001 94.5059 124.009 94.524Z" fill="#FAFAFA"/>
<path d="M128.976 109.616C128.966 109.637 128.76 109.445 128.325 109.191C127.893 108.939 127.228 108.609 126.33 108.478C125.437 108.331 124.317 108.392 123.074 108.794C121.83 109.191 120.486 109.986 119.088 111.046C117.682 112.095 116.224 113.432 114.55 114.657C112.886 115.853 110.944 117.004 108.751 117.068C106.56 117.174 104.351 116.17 102.225 114.935C100.086 113.711 97.9312 112.223 95.5332 111.497C93.1322 110.79 90.6884 110.975 88.4041 111.485C86.1095 111.988 83.9459 112.811 81.8714 113.527C79.7984 114.25 77.8043 114.875 75.9 115.17C73.9986 115.466 72.1915 115.45 70.5845 115.038C67.3569 114.212 65.098 112.018 63.981 110.152C63.3953 109.227 63.0989 108.37 62.8911 107.808C62.8126 107.527 62.7505 107.304 62.7036 107.137C62.6629 106.985 62.644 106.907 62.6486 106.905C62.6985 106.867 62.9079 108.225 64.0605 110.066C65.1882 111.883 67.4318 114.012 70.6197 114.797C72.2032 115.187 73.9905 115.19 75.873 114.884C77.759 114.579 79.7398 113.949 81.8082 113.218C83.8776 112.494 86.0474 111.661 88.3608 111.149C90.663 110.631 93.1424 110.438 95.5918 111.158C98.0366 111.9 100.202 113.402 102.33 114.623C104.446 115.858 106.613 116.843 108.744 116.747C110.875 116.696 112.788 115.581 114.444 114.404C116.108 113.201 117.575 111.874 118.995 110.831C120.408 109.778 121.772 108.989 123.039 108.604C124.302 108.215 125.439 108.173 126.342 108.343C127.25 108.497 127.919 108.853 128.347 109.127C128.779 109.405 128.976 109.616 128.976 109.616Z" fill="#FAFAFA"/>
<path d="M118.025 134.38C118.025 134.38 117.889 134.51 117.592 134.653C117.298 134.798 116.836 134.943 116.233 134.935C115.632 134.927 114.898 134.756 114.101 134.357C113.302 133.964 112.457 133.342 111.515 132.708C110.576 132.07 109.497 131.495 108.268 131.269C107.045 131.025 105.706 131.06 104.329 131.347C101.554 131.891 98.7168 133.567 95.6812 135.067C94.1593 135.815 92.6298 136.43 91.1186 136.806C89.6094 137.192 88.1303 137.391 86.7195 137.449C83.8927 137.552 81.3562 137.048 79.2914 136.357C77.2214 135.671 75.6231 134.78 74.5546 134.096C74.0116 133.774 73.6148 133.458 73.3393 133.264C73.215 133.17 73.1132 133.094 73.0301 133.032C72.9614 132.978 72.9272 132.948 72.9293 132.943C72.9313 132.937 72.97 132.957 73.0434 133.001C73.13 133.055 73.2354 133.121 73.3648 133.202C73.648 133.376 74.0508 133.671 74.5989 133.973C75.6766 134.617 77.2764 135.467 79.3377 136.118C81.3939 136.773 83.912 137.247 86.7129 137.128C88.111 137.062 89.5753 136.859 91.0687 136.472C92.5646 136.094 94.0742 135.485 95.5895 134.74C98.6099 133.249 101.472 131.565 104.292 131.03C105.691 130.748 107.054 130.722 108.302 130.984C109.555 131.226 110.664 131.832 111.601 132.489C112.544 133.142 113.375 133.772 114.156 134.175C114.932 134.585 115.649 134.771 116.236 134.799C117.427 134.852 118.017 134.322 118.025 134.38Z" fill="#FAFAFA"/>
<path d="M117.588 148.387C117.56 148.42 117.181 147.675 116.244 146.677C115.309 145.714 113.731 144.514 111.579 144.254C110.513 144.111 109.32 144.259 108.131 144.792C106.946 145.355 105.788 146.301 104.677 147.467C103.561 148.631 102.471 149.991 101.258 151.291C100.05 152.583 98.6693 153.811 97.0542 154.448C95.4411 155.079 93.772 155.111 92.2181 154.847C90.6575 154.589 89.1936 154.066 87.8215 153.516C85.0752 152.417 82.6864 151.103 80.6083 150.337C78.5343 149.55 76.7618 149.387 75.5725 149.648C74.3797 149.886 73.7736 150.309 73.7603 150.256C73.7583 150.251 73.796 150.226 73.8709 150.182C73.961 150.133 74.0715 150.072 74.2065 149.997C74.3527 149.91 74.5396 149.823 74.7678 149.75C74.9929 149.661 75.2542 149.569 75.5567 149.514C76.7567 149.208 78.5618 149.337 80.6582 150.1C82.7623 150.844 85.1531 152.132 87.8933 153.21C89.2609 153.749 90.7135 154.26 92.2502 154.51C93.7812 154.765 95.4111 154.728 96.9778 154.116C98.5445 153.498 99.8942 152.304 101.094 151.026C102.298 149.743 103.394 148.385 104.526 147.216C105.653 146.045 106.839 145.086 108.058 144.52C109.286 143.983 110.51 143.848 111.597 144.009C113.793 144.307 115.383 145.565 116.309 146.573C117.238 147.616 117.588 148.387 117.588 148.387Z" fill="#FAFAFA"/>
<g opacity="0.2">
<path d="M72.2109 145.745C75.2817 146.059 78.0168 143.355 80.2961 140.639C82.5754 137.922 84.9585 134.895 88.0074 134.321C91.2025 133.72 94.45 135.99 97.615 135.159C99.0396 134.785 100.368 133.794 101.82 133.719C104.213 133.597 106.219 135.931 107.941 138.113C110.18 140.951 112.419 143.79 114.658 146.628C115.343 147.497 116.65 148.798 117.51 148.256L117.676 143.865C116.603 135.965 115.438 127.841 110.798 122.61C107.353 118.727 102.667 117.392 98.1543 116.718C92.6872 115.902 86.7718 115.995 82.1827 119.976C79.1226 122.631 76.963 126.791 75.5481 131.231C74.1332 135.67 73.3997 140.424 72.6744 145.14" fill="black"/>
</g>
<path d="M131.02 123.233C131.153 124.274 133.356 140.961 132.958 144.26C132.561 147.559 131.899 151.899 128.987 153.461C126.075 155.023 121.839 152.94 119.456 147.559C117.074 142.176 106.749 123.254 106.749 123.254L99.0713 122.039V105.199L113.765 117.466L120.515 125.501L119.999 122.806L131.02 123.233Z" fill="#EB996E"/>
<path d="M102.385 128.191H90.7938C89.8424 128.191 89.0713 127.18 89.0713 125.932V98.5066C89.0713 97.2588 89.8424 96.2474 90.7938 96.2474H102.385C103.336 96.2474 104.107 97.2588 104.107 98.5066V125.932C104.107 127.18 103.336 128.191 102.385 128.191Z" fill="#455A64"/>
<path d="M113.118 117.037C113.167 116.965 116.361 120.586 120.251 125.123C124.142 129.661 127.257 133.398 127.208 133.47C127.16 133.541 123.966 129.921 120.075 125.383C116.184 120.846 113.069 117.108 113.118 117.037Z" fill="#E07646"/>
<path d="M59.2808 124.177C59.2808 124.177 57.4482 144.922 57.4482 147.285C57.4482 149.648 59.07 155.319 63.5745 155.792C68.079 156.265 73.8452 143.031 73.8452 143.031L83.2149 124.362L79.0705 114.2L70.968 124.796L59.2808 124.177Z" fill="#EB996E"/>
<path d="M101.115 108.732L88.9809 108.292L79.0703 114.199L83.2148 124.361L90.4661 122.975C90.4661 122.975 94.7089 122.069 94.9707 121.727C95.4591 121.089 95.8844 119.116 96.1768 117.404C96.4742 115.66 96.3255 113.838 95.7495 112.218L95.4764 111.914C95.4764 111.914 99.4701 110.82 100.133 110.436C101.724 109.517 101.115 108.732 101.115 108.732Z" fill="#EB996E"/>
<path d="M79.0709 114.2C79.0842 114.217 78.9156 114.484 78.5988 114.954C78.283 115.425 77.8139 116.092 77.2271 116.908C76.0541 118.54 74.3932 120.742 72.5387 123.146C70.7046 125.531 69.0457 127.688 67.7973 129.31C67.2203 130.066 66.7395 130.696 66.3661 131.185C66.0264 131.626 65.8323 131.863 65.8191 131.846C65.8058 131.829 65.9744 131.562 66.2912 131.092C66.607 130.621 67.0761 129.953 67.6629 129.138C68.8359 127.506 70.4973 125.303 72.3518 122.899C74.1854 120.515 75.8438 118.359 77.0922 116.736C77.6692 115.98 78.1506 115.35 78.5234 114.861C78.8636 114.42 79.0577 114.183 79.0709 114.2Z" fill="#E07646"/>
<path d="M91.0282 113.456C90.9803 113.398 91.8956 112.407 93.2947 112.052C94.6913 111.678 95.8256 112.135 95.7986 112.213C95.7869 112.321 94.678 112.034 93.3466 112.393C92.0117 112.728 91.0704 113.549 91.0282 113.456Z" fill="#E07646"/>
<path d="M96.484 115.231C96.4585 115.333 95.5106 114.839 94.301 114.996C93.0893 115.127 92.2244 115.835 92.1857 115.74C92.1353 115.682 92.9874 114.793 94.277 114.649C95.5651 114.487 96.5258 115.162 96.484 115.231Z" fill="#E07646"/>
<path d="M95.7208 118.16C95.6933 118.201 95.5598 118.084 95.3311 117.976C95.1035 117.865 94.7699 117.786 94.4047 117.849C94.04 117.915 93.7339 118.108 93.5368 118.293C93.3381 118.477 93.2327 118.637 93.1981 118.607C93.1711 118.587 93.223 118.368 93.415 118.107C93.6035 117.846 93.9493 117.58 94.3695 117.505C94.7897 117.432 95.1768 117.569 95.4111 117.754C95.6485 117.939 95.7427 118.132 95.7208 118.16Z" fill="#E07646"/>
<path d="M95.6309 86.4471C99.6531 86.1425 102.784 81.7498 102.747 76.4659C102.725 73.2922 102.697 70.5715 102.697 70.5715C102.697 70.5715 108.833 69.3203 108.909 61.2742C108.985 53.2282 107.921 34.7533 107.921 34.7533C100.82 30.7506 92.6228 32.102 86.4971 38.285L85.5879 39.2028L87.6624 77.2648C87.9573 82.6689 91.5074 86.7598 95.6309 86.4471Z" fill="#EB996E"/>
<path d="M102.708 70.4559C102.708 70.4559 98.8305 70.8694 94.7095 67.4746C94.7095 67.4746 96.6001 73.2648 102.721 72.5401L102.708 70.4559Z" fill="#E07646"/>
<path d="M86.3443 47.5374C86.2398 47.478 82.129 45.9022 82.263 51.4032C82.3969 56.9035 86.5801 55.5929 86.5836 55.4345C86.5867 55.2762 86.3443 47.5374 86.3443 47.5374Z" fill="#EB996E"/>
<path d="M85.2513 53.4045C85.2324 53.3878 85.1799 53.4746 85.0582 53.5541C84.9395 53.6316 84.7338 53.6897 84.5122 53.5915C84.064 53.3971 83.6682 52.49 83.6239 51.4994C83.601 50.999 83.6693 50.5187 83.7951 50.1186C83.9132 49.7111 84.1047 49.4212 84.3268 49.3598C84.5468 49.2829 84.7093 49.4519 84.7643 49.6042C84.8244 49.7559 84.8005 49.8668 84.8229 49.8748C84.8351 49.8881 84.9105 49.7793 84.8713 49.5535C84.8514 49.4453 84.799 49.317 84.6981 49.2155C84.5947 49.1119 84.4455 49.0638 84.2906 49.0926C83.9682 49.1353 83.6866 49.5381 83.548 49.9777C83.3922 50.4199 83.3066 50.9596 83.3321 51.5214C83.3861 52.6283 83.844 53.6476 84.4557 53.8521C84.7531 53.9402 84.9966 53.814 85.1204 53.6784C85.2472 53.5374 85.2665 53.4138 85.2513 53.4045Z" fill="#E07646"/>
<path d="M105.91 48.3224C105.926 48.929 105.549 49.4473 105.065 49.4814C104.583 49.5155 104.178 49.0525 104.162 48.4453C104.146 47.8388 104.524 47.3191 105.006 47.285C105.489 47.2516 105.894 47.7159 105.91 48.3224Z" fill="#263238"/>
<path d="M106.761 46.0719C106.652 46.2215 105.988 45.5776 105.046 45.5809C104.104 45.5669 103.412 46.2028 103.31 46.0512C103.26 45.9844 103.37 45.7139 103.672 45.426C103.968 45.1394 104.474 44.8608 105.061 44.8642C105.648 44.8682 106.142 45.1521 106.426 45.442C106.716 45.7339 106.814 46.0051 106.761 46.0719Z" fill="#263238"/>
<path d="M96.4624 48.464C96.4787 49.0706 96.1003 49.5889 95.6174 49.623C95.1356 49.6571 94.7307 49.1935 94.7144 48.5869C94.6981 47.9804 95.0765 47.4607 95.5583 47.4273C96.0412 47.3932 96.4456 47.8575 96.4624 48.464Z" fill="#263238"/>
<path d="M97.4936 46.303C97.3846 46.4526 96.7199 45.8087 95.7782 45.812C94.8364 45.7973 94.1447 46.4339 94.0424 46.2823C93.9924 46.2155 94.1019 45.9449 94.4045 45.657C94.7009 45.3705 95.2067 45.0919 95.794 45.0952C96.3812 45.0993 96.8753 45.3832 97.1595 45.6731C97.4478 45.965 97.5466 46.2355 97.4936 46.303Z" fill="#263238"/>
<path d="M100.915 55.4727C100.91 55.4026 101.497 55.2696 102.446 55.1106C102.687 55.0779 102.914 55.0151 102.955 54.8C103.012 54.5722 102.911 54.2316 102.794 53.8642C102.568 53.1 102.331 52.299 102.082 51.46C101.094 48.0372 100.378 45.2222 100.483 45.1715C100.589 45.1207 101.476 47.8535 102.464 51.2763C102.702 52.1207 102.93 52.925 103.146 53.6952C103.237 54.0539 103.394 54.4607 103.271 54.9343C103.206 55.1701 103.03 55.3418 102.875 55.3959C102.721 55.4573 102.585 55.4613 102.466 55.4707C101.511 55.5375 100.918 55.5428 100.915 55.4727Z" fill="#263238"/>
<path d="M98.1403 56.3278C98.2936 56.3164 98.2956 57.6584 99.1712 58.611C100.046 59.5669 101.136 59.4159 101.144 59.6036C101.159 59.6878 100.901 59.8641 100.441 59.8808C99.9892 59.9016 99.3296 59.7112 98.7938 59.128C98.2595 58.5435 98.0298 57.7646 97.9946 57.2135C97.9559 56.6524 98.07 56.3204 98.1403 56.3278Z" fill="#263238"/>
<path d="M97.7363 41.4574C97.6431 41.7934 96.7019 41.6344 95.5961 41.8094C94.4873 41.955 93.5954 42.3799 93.4488 42.0779C93.383 41.9336 93.5389 41.6177 93.8995 41.2917C94.2571 40.967 94.827 40.6578 95.4912 40.5609C96.1553 40.466 96.763 40.6036 97.1659 40.8187C97.5718 41.0338 97.7766 41.2977 97.7363 41.4574Z" fill="#E8505B"/>
<path d="M106.414 42.4934C106.247 42.774 105.598 42.4828 104.817 42.4694C104.037 42.42 103.375 42.6578 103.223 42.3645C103.156 42.2216 103.26 41.9403 103.55 41.6745C103.834 41.4093 104.311 41.1929 104.847 41.2142C105.384 41.2369 105.849 41.4908 106.121 41.7787C106.396 42.0673 106.487 42.3572 106.414 42.4934Z" fill="#E8505B"/>
<path d="M110.91 29.6745C110.976 28.6772 110.693 27.6071 110.074 27.0206C109.455 26.4347 108.495 26.4715 107.993 27.225C108.281 25.8816 107.443 24.3319 106.381 24.2437C105.381 24.1602 104.527 25.1515 103.56 25.4995C102.617 25.8389 101.604 25.5456 100.696 25.066C99.7883 24.5864 98.9397 23.9251 98.0204 23.4842C96.1033 22.5657 93.9111 22.6812 92.0561 23.7981C90.2011 24.915 88.7057 27.0199 87.987 29.5256C86.6454 28.9758 85.121 29.8689 84.2933 31.3592C83.4662 32.8495 83.2538 34.8074 83.4183 36.6378C83.5293 37.8749 83.8023 39.0706 84.1197 40.2483C84.1192 40.3518 84.1115 40.4534 84.113 40.5569C84.1767 44.9811 84.5577 50.1768 85.9971 50.2055C88.5055 50.2556 87.9076 44.0579 87.9076 44.0579C90.986 42.4981 89.839 36.4487 90.6091 35.5309C91.3787 34.6131 92.9892 32.4808 99.4343 36.8014C101.937 38.4788 105.265 38.4267 107.081 37.8863C107.135 37.8709 107.189 37.8602 107.242 37.8435C107.253 37.8402 107.268 37.8375 107.279 37.8335C107.299 37.8268 107.313 37.8128 107.333 37.8054C107.912 37.6077 108.47 37.3138 108.985 36.8856C109.569 36.4013 110.1 35.7453 110.348 34.8996C110.595 34.0539 110.502 32.9978 109.996 32.3813C110.472 31.5977 110.844 30.6719 110.91 29.6745Z" fill="#E8505B"/>
<path d="M236.771 296.729L170.702 296.328C162.756 296.281 156.343 287.795 156.377 277.374L157.077 60.1387C157.111 49.7113 163.585 41.2951 171.535 41.3432L237.605 41.7434C245.551 41.7915 251.963 50.2771 251.93 60.6985L251.229 277.934C251.196 288.361 244.722 296.777 236.771 296.729Z" fill="#263238"/>
<path d="M237.51 49.2404L224.7 49.1629C222.983 49.1529 221.584 51.054 221.577 53.4087L221.566 56.4561C221.559 58.8115 220.16 60.7126 218.443 60.7019L193.474 60.5503C191.756 60.5403 190.369 58.6224 190.377 56.2671L190.387 53.2196C190.395 50.8643 189.008 48.9465 187.29 48.9364L182.785 48.909L171.573 48.8416C166.005 48.8082 161.471 54.7019 161.448 62.0052L160.764 274.042C160.741 281.342 165.232 287.284 170.797 287.318L236.734 287.717C242.302 287.751 246.836 281.857 246.86 274.554L247.543 62.5162C247.566 55.2163 243.075 49.2744 237.51 49.2404Z" fill="#FAFAFA"/>
<path d="M176.901 82.7666C176.901 85.0618 175.483 86.9222 173.733 86.9222C171.982 86.9222 170.564 85.0618 170.564 82.7666C170.564 80.4713 171.982 78.611 173.733 78.611C175.482 78.611 176.901 80.4713 176.901 82.7666Z" fill="#07A6B9"/>
<path d="M182.812 79.6423H235.98C237.605 79.6423 238.922 81.3698 238.922 83.5007V94.0645C238.922 96.1954 237.605 97.9235 235.98 97.9235H188.36C186.735 97.9235 185.418 96.196 185.418 94.0645V82.7178L182.812 79.6423Z" fill="#07A6B9"/>
<path d="M230.397 86.1974C230.397 86.2935 222.234 86.371 212.166 86.371C202.094 86.371 193.932 86.2929 193.932 86.1974C193.932 86.1018 202.094 86.0237 212.166 86.0237C222.234 86.0237 230.397 86.1018 230.397 86.1974Z" fill="white"/>
<path d="M230.397 90.5019C230.397 90.5981 222.234 90.6756 212.166 90.6756C202.094 90.6756 193.932 90.5974 193.932 90.5019C193.932 90.4057 202.094 90.3282 212.166 90.3282C222.234 90.3282 230.397 90.4057 230.397 90.5019Z" fill="white"/>
<path d="M176.901 185.011C176.901 187.306 175.483 189.166 173.733 189.166C171.982 189.166 170.564 187.306 170.564 185.011C170.564 182.715 171.982 180.855 173.733 180.855C175.482 180.855 176.901 182.715 176.901 185.011Z" fill="#07A6B9"/>
<path d="M182.812 181.886H235.98C237.605 181.886 238.922 183.613 238.922 185.744V196.308C238.922 198.439 237.605 200.166 235.98 200.166H188.36C186.735 200.166 185.418 198.439 185.418 196.308V184.961L182.812 181.886Z" fill="#07A6B9"/>
<path d="M230.397 188.441C230.397 188.538 222.234 188.615 212.166 188.615C202.094 188.615 193.932 188.537 193.932 188.441C193.932 188.346 202.094 188.268 212.166 188.268C222.234 188.267 230.397 188.345 230.397 188.441Z" fill="white"/>
<path d="M230.397 192.746C230.397 192.842 222.234 192.92 212.166 192.92C202.094 192.92 193.932 192.842 193.932 192.746C193.932 192.65 202.094 192.572 212.166 192.572C222.234 192.572 230.397 192.65 230.397 192.746Z" fill="white"/>
<path d="M232.544 118.794C234.264 118.794 235.658 116.965 235.658 114.71C235.658 112.454 234.264 110.625 232.544 110.625C230.824 110.625 229.43 112.454 229.43 114.71C229.43 116.965 230.824 118.794 232.544 118.794Z" fill="#2308B9"/>
<path d="M225.035 108.976H175.237C173.716 108.976 172.482 110.594 172.482 112.59V122.484C172.482 124.48 173.716 126.098 175.237 126.098H219.839C221.361 126.098 222.595 124.48 222.595 122.484V111.857L225.035 108.976Z" fill="#2308B9"/>
<path d="M180.467 115.116C180.467 115.02 188.113 114.943 197.543 114.943C206.976 114.943 214.621 115.021 214.621 115.116C214.621 115.213 206.976 115.29 197.543 115.29C188.113 115.29 180.467 115.212 180.467 115.116Z" fill="white"/>
<path d="M180.467 119.148C180.467 119.052 188.113 118.974 197.543 118.974C206.976 118.974 214.621 119.052 214.621 119.148C214.621 119.243 206.976 119.321 197.543 119.321C188.113 119.322 180.467 119.244 180.467 119.148Z" fill="white"/>
<path d="M237.342 143.492C237.342 145.787 235.923 147.647 234.173 147.647C232.423 147.647 231.005 145.787 231.005 143.492C231.005 141.196 232.423 139.336 234.173 139.336C235.923 139.336 237.342 141.197 237.342 143.492Z" fill="#2308B9"/>
<path d="M223.118 137.474H173.32C171.798 137.474 170.564 139.092 170.564 141.088V150.981C170.564 152.977 171.798 154.595 173.32 154.595H217.921C219.443 154.595 220.677 152.977 220.677 150.981V140.354L223.118 137.474Z" fill="#2308B9"/>
<path d="M178.548 143.613C178.548 143.71 186.194 143.787 195.624 143.787C205.058 143.787 212.702 143.709 212.702 143.613C212.702 143.517 205.058 143.44 195.624 143.44C186.194 143.44 178.548 143.517 178.548 143.613Z" fill="white"/>
<path d="M178.548 147.645C178.548 147.741 186.194 147.818 195.624 147.818C205.058 147.818 212.702 147.74 212.702 147.645C212.702 147.549 205.058 147.471 195.624 147.471C186.194 147.471 178.548 147.549 178.548 147.645Z" fill="white"/>
<path d="M174.574 173.731H186.589C187.712 173.731 188.623 172.537 188.623 171.064V165.368C188.623 163.895 187.712 162.701 186.589 162.701H174.574C173.451 162.701 172.54 163.895 172.54 165.368V171.064C172.54 172.537 173.451 173.731 174.574 173.731Z" fill="#2308B9"/>
<path d="M175.404 168.216C175.404 168.312 177.517 168.389 180.124 168.389C182.731 168.389 184.845 168.311 184.845 168.216C184.845 168.12 182.731 168.042 180.124 168.042C177.517 168.042 175.404 168.12 175.404 168.216Z" fill="white"/>
<path d="M174.726 236.029H166.851V246.358H174.726V236.029Z" fill="#E0E0E0"/>
<path d="M184.094 236.029H176.219V246.358H184.094V236.029Z" fill="#E0E0E0"/>
<path d="M193.462 236.029H185.586V246.358H193.462V236.029Z" fill="#E0E0E0"/>
<path d="M202.829 236.029H194.954V246.358H202.829V236.029Z" fill="#E0E0E0"/>
<path d="M212.197 236.029H204.322V246.358H212.197V236.029Z" fill="#E0E0E0"/>
<path d="M175.082 261.509H166.851V272.305H175.082V261.509Z" fill="#E0E0E0"/>
<path d="M216.355 261.537H176.643V272.332H216.355V261.537Z" fill="#E0E0E0"/>
<path d="M240.396 233.028C240.396 233.028 240.388 232.76 240.384 232.246C240.381 231.725 240.376 230.965 240.37 229.966C240.362 227.957 240.351 224.995 240.336 221.138L240.396 221.216C227.081 221.234 199.132 221.27 166.855 221.312H166.851L166.984 221.138C166.983 225.212 166.983 229.232 166.983 233.028L166.851 232.855C187.542 232.885 205.909 232.912 219.111 232.93C225.716 232.952 231.028 232.969 234.697 232.981C236.528 232.992 237.947 232.999 238.917 233.005C239.395 233.01 239.761 233.014 240.015 233.016C240.264 233.02 240.396 233.028 240.396 233.028C240.396 233.028 240.277 233.036 240.034 233.04C239.783 233.043 239.423 233.047 238.952 233.052C237.989 233.057 236.58 233.065 234.762 233.076C231.1 233.088 225.799 233.105 219.206 233.127C205.98 233.145 187.58 233.172 166.851 233.201H166.719V233.028C166.718 229.232 166.718 225.211 166.718 221.138V220.964H166.851H166.855C199.131 221.006 227.081 221.043 240.395 221.06H240.455L240.454 221.138C240.44 225.015 240.428 227.992 240.421 230.012C240.415 231.003 240.41 231.757 240.407 232.274C240.404 232.779 240.396 233.028 240.396 233.028Z" fill="#2308B9"/>
<path d="M235.28 228.16H234.905C234.488 228.16 234.15 227.717 234.15 227.17V224.239C234.15 223.692 234.488 223.249 234.905 223.249H235.28C235.697 223.249 236.034 223.692 236.034 224.239V227.17C236.034 227.717 235.696 228.16 235.28 228.16Z" fill="#2308B9"/>
<path d="M237.375 227.189C237.375 227.226 237.154 227.26 236.774 227.288L236.849 227.197C236.827 227.612 236.747 228.167 236.468 228.726C236.328 229 236.126 229.265 235.864 229.439C235.602 229.617 235.293 229.675 234.987 229.658C234.386 229.644 233.873 229.168 233.598 228.658C233.317 228.138 233.191 227.62 233.135 227.209L233.214 227.295C232.775 227.266 232.521 227.229 232.521 227.19C232.521 227.151 232.775 227.115 233.214 227.085L233.273 227.081L233.292 227.171C233.371 227.534 233.519 228.02 233.786 228.471C234.053 228.915 234.48 229.297 235 229.312C235.267 229.326 235.532 229.28 235.75 229.137C235.97 228.998 236.145 228.784 236.276 228.549C236.539 228.076 236.648 227.552 236.698 227.183L236.711 227.087L236.773 227.092C237.154 227.119 237.375 227.153 237.375 227.189Z" fill="#2308B9"/>
<path d="M235.092 229.494C235.165 229.494 235.224 229.833 235.224 230.252C235.224 230.671 235.165 231.01 235.092 231.01C235.019 231.01 234.959 230.671 234.959 230.252C234.959 229.833 235.019 229.494 235.092 229.494Z" fill="#2308B9"/>
<path d="M225.928 261.509H217.697V272.305H225.928V261.509Z" fill="#E0E0E0"/>
<path d="M240.396 261.509H227.488V272.305H240.396V261.509Z" fill="#2308B9"/>
<path d="M221.661 236.029H213.786V246.358H221.661V236.029Z" fill="#E0E0E0"/>
<path d="M231.028 236.029H223.153V246.358H231.028V236.029Z" fill="#E0E0E0"/>
<path d="M240.396 236.029H232.521V246.358H240.396V236.029Z" fill="#E0E0E0"/>
<path d="M174.726 248.769H166.851V259.098H174.726V248.769Z" fill="#E0E0E0"/>
<path d="M184.094 248.769H176.219V259.098H184.094V248.769Z" fill="#E0E0E0"/>
<path d="M193.462 248.769H185.586V259.098H193.462V248.769Z" fill="#E0E0E0"/>
<path d="M202.829 248.769H194.954V259.098H202.829V248.769Z" fill="#E0E0E0"/>
<path d="M212.197 248.769H204.322V259.098H212.197V248.769Z" fill="#E0E0E0"/>
<path d="M221.661 248.769H213.786V259.098H221.661V248.769Z" fill="#E0E0E0"/>
<path d="M231.028 248.769H223.153V259.098H231.028V248.769Z" fill="#E0E0E0"/>
<path d="M240.396 248.769H232.521V259.098H240.396V248.769Z" fill="#E0E0E0"/>
</svg>
